<svg id="SvgjsSvg1008" xmlns="http://www.w3.org/2000/svg" version="1.1" xmlns:xlink="http://www.w3.org/1999/xlink" xmlns:svgjs="http://svgjs.com/svgjs" width="47" height="47"><defs id="SvgjsDefs1009"></defs><path id="SvgjsPath1010" d="M714.5 375C701.543 375 691 385.532 691 398.489C691 411.457 701.543 422 714.5 422C727.457 422 738 411.457 738 398.489C738 385.532 727.457 375 714.5 375ZM714.5 419.864C702.718 419.864 693.136 410.27099999999996 693.136 398.489C693.136 386.71799999999996 702.718 377.13599999999997 714.5 377.13599999999997C726.282 377.13599999999997 735.864 386.71799999999996 735.864 398.489C735.864 410.27099999999996 726.282 419.864 714.5 419.864ZM721.689 404.236C721.913 404.45 722.031 404.728 722.031 405.005C722.031 405.262 721.935 405.497 721.7639999999999 405.668C721.3789999999999 406.041 720.728 406.009 720.3109999999999 405.593L714.4999999999999 399.814L708.6889999999999 405.593C708.2719999999998 406.009 707.6209999999999 406.041 707.2359999999999 405.668C707.0649999999998 405.497 706.9689999999998 405.262 706.9689999999998 405.005C706.9799999999998 404.728 707.0979999999998 404.439 707.3109999999998 404.236L713.1219999999998 398.447L707.3109999999998 392.668C707.0979999999998 392.454 706.9799999999998 392.166 706.9799999999998 391.88800000000003C706.9799999999998 391.63200000000006 707.0649999999998 391.40700000000004 707.2359999999998 391.23600000000005C707.4179999999998 391.05500000000006 707.6529999999998 390.96900000000005 707.8989999999998 390.96900000000005C708.1759999999998 390.96900000000005 708.4649999999998 391.0760000000001 708.6889999999997 391.30000000000007L714.4999999999998 397.07900000000006L720.3109999999998 391.30000000000007C720.7279999999998 390.88400000000007 721.3789999999998 390.8520000000001 721.7639999999998 391.23600000000005C721.9349999999998 391.40700000000004 722.0309999999998 391.63200000000006 722.0309999999998 391.88800000000003C722.0309999999998 392.16600000000005 721.9019999999998 392.454 721.6889999999999 392.668L715.8779999999998 398.447Z " fill="#cc1d1d" transform="matrix(1,0,0,1,-691,-375)"></path></svg>