<svg id="SvgjsSvg1000" xmlns="http://www.w3.org/2000/svg" version="1.1" xmlns:xlink="http://www.w3.org/1999/xlink" xmlns:svgjs="http://svgjs.com/svgjs" width="8" height="4"><defs id="SvgjsDefs1001"></defs><path id="SvgjsPath1007" d="M551.132 731.489L550.7969999999999 731.154C550.752 731.109 550.7009999999999 731.087 550.6429999999999 731.087C550.5849999999999 731.087 550.5329999999999 731.109 550.4889999999999 731.154L547.857 733.786L545.225 731.154C545.181 731.109 545.129 731.087 545.071 731.087C545.013 731.087 544.962 731.109 544.917 731.154L544.5830000000001 731.489C544.5380000000001 731.534 544.5160000000001 731.585 544.5160000000001 731.643C544.5160000000001 731.701 544.5380000000001 731.7520000000001 544.5830000000001 731.797L547.7030000000001 734.917C547.748 734.962 547.7990000000001 734.984 547.8570000000001 734.984C547.9150000000001 734.984 547.9660000000001 734.962 548.0110000000001 734.917L551.1320000000001 731.797C551.176 731.7520000000001 551.1990000000001 731.701 551.1990000000001 731.643C551.1990000000001 731.585 551.176 731.534 551.1320000000001 731.489Z " fill="#1bccc7" transform="matrix(1,0,0,1,-544,-731)"></path></svg>