<svg id="Layer_1" data-name="Layer 1" xmlns="http://www.w3.org/2000/svg" viewBox="0 0 16 16"><defs><style>.cls-1{fill:#1bccc7;}</style></defs><title>Artboard 2</title><path class="cls-1" d="M15,1.5a1,1,0,0,1,1,1V15a1,1,0,0,1-.29.7A1,1,0,0,1,15,16H1a1,1,0,0,1-.71-.3A1,1,0,0,1,0,15V2.5a1,1,0,0,1,.29-.71A1,1,0,0,1,1,1.5H5V.5A.48.48,0,0,1,5.15.15a.49.49,0,0,1,.7,0A.48.48,0,0,1,6,.5v1h4V.5a.48.48,0,0,1,.15-.35.49.49,0,0,1,.7,0A.48.48,0,0,1,11,.5v1ZM15,15V2.5H11V3a.5.5,0,0,1-1,0V2.5H6V3A.5.5,0,0,1,5,3V2.5H1V15ZM4.5,6a.51.51,0,0,1,.5.5v1a.51.51,0,0,1-.5.5h-1A.51.51,0,0,1,3,7.5v-1A.51.51,0,0,1,3.5,6Zm0,4a.51.51,0,0,1,.5.5v1a.51.51,0,0,1-.5.5h-1a.51.51,0,0,1-.5-.5v-1a.51.51,0,0,1,.5-.5Zm4-4a.51.51,0,0,1,.5.5v1a.51.51,0,0,1-.5.5h-1A.51.51,0,0,1,7,7.5v-1A.51.51,0,0,1,7.5,6Zm0,4a.51.51,0,0,1,.5.5v1a.51.51,0,0,1-.5.5h-1a.51.51,0,0,1-.5-.5v-1a.51.51,0,0,1,.5-.5Zm3-2a.51.51,0,0,1-.5-.5v-1a.51.51,0,0,1,.5-.5h1a.51.51,0,0,1,.5.5v1a.51.51,0,0,1-.5.5Zm0,4a.51.51,0,0,1-.5-.5v-1a.51.51,0,0,1,.5-.5h1a.51.51,0,0,1,.5.5v1a.51.51,0,0,1-.5.5Z"/></svg>