<svg id="SvgjsSvg1020" xmlns="http://www.w3.org/2000/svg" version="1.1" xmlns:xlink="http://www.w3.org/1999/xlink" xmlns:svgjs="http://svgjs.com/svgjs" width="16" height="7"><defs id="SvgjsDefs1021"></defs><path id="SvgjsPath1022" d="M661.846 478.204C661.851 478.197 661.854 478.193 661.858 478.187C661.9 478.134 661.933 478.09000000000003 661.9559999999999 478.06C661.9609999999999 478.053 661.9629999999999 478.05 661.9669999999999 478.045C661.9869999999999 478.01800000000003 661.9999999999999 478 661.9999999999999 478L660.7199999999999 478C659.68 479.231 656.9999999999999 482.001 653.9999999999999 482.001C650.9999999999999 482.001 648.3199999999999 479.231 647.2799999999999 478L645.9999999999999 478C645.9999999999999 478 646.0129999999999 478.018 646.0329999999999 478.045C646.0369999999999 478.05 646.0389999999999 478.053 646.0439999999999 478.06C646.0669999999999 478.09 646.0999999999999 478.134 646.1419999999998 478.187C646.1459999999998 478.193 646.1489999999998 478.197 646.1539999999998 478.204C646.3609999999998 478.47 646.7709999999997 478.974 647.3499999999998 479.56600000000003L646.0379999999998 480.836L646.7329999999998 481.555L648.0729999999999 480.258C648.0889999999998 480.272 648.1079999999998 480.286 648.1239999999999 480.29999999999995C648.3489999999999 480.50199999999995 648.5919999999999 480.70399999999995 648.8459999999999 480.90299999999996C648.935 480.974 649.0229999999999 481.04099999999994 649.1159999999999 481.10999999999996C649.3749999999999 481.304 649.6439999999999 481.49299999999994 649.9269999999999 481.67099999999994C649.9629999999999 481.6929999999999 649.9929999999999 481.71899999999994 650.0279999999999 481.74099999999993L649.9809999999999 481.7179999999999L649.1269999999998 483.5239999999999L650.0309999999998 483.9509999999999L650.8579999999998 482.2049999999999C651.4119999999998 482.4789999999999 652.0019999999998 482.68999999999994 652.6129999999998 482.8259999999999C652.6439999999998 482.8329999999999 652.6739999999999 482.8419999999999 652.7049999999998 482.84899999999993C652.9519999999998 482.8999999999999 653.2009999999998 482.9409999999999 653.4549999999998 482.96399999999994L653.4549999999998 484.99999999999994L654.5449999999998 484.99999999999994L654.5449999999998 482.96399999999994C654.7979999999999 482.9409999999999 655.0479999999999 482.8999999999999 655.2949999999998 482.84899999999993C655.3259999999998 482.8419999999999 655.3559999999999 482.8329999999999 655.3869999999998 482.8259999999999C655.9979999999998 482.6899999999999 656.5879999999999 482.4789999999999 657.1419999999998 482.2049999999999L657.9689999999998 483.9509999999999L658.8729999999998 483.5239999999999L658.0189999999998 481.7179999999999L657.9719999999998 481.74099999999993C658.0069999999997 481.71899999999994 658.0379999999998 481.6929999999999 658.0729999999998 481.67099999999994C658.3559999999998 481.49299999999994 658.6249999999998 481.3039999999999 658.8839999999998 481.10999999999996C658.9759999999998 481.04099999999994 659.0649999999998 480.97299999999996 659.1549999999997 480.90299999999996C659.4079999999998 480.703 659.6509999999997 480.50199999999995 659.8759999999997 480.29999999999995C659.8919999999997 480.28599999999994 659.9109999999997 480.27199999999993 659.9269999999998 480.258L661.2669999999998 481.555L661.9619999999999 480.836L660.6499999999999 479.56600000000003C661.2289999999998 478.97400000000005 661.6389999999999 478.47 661.8459999999999 478.204Z " fill="#bababa" transform="matrix(1,0,0,1,-646,-478)"></path></svg>