<svg id="SvgjsSvg1008" xmlns="http://www.w3.org/2000/svg" version="1.1" xmlns:xlink="http://www.w3.org/1999/xlink" xmlns:svgjs="http://svgjs.com/svgjs" width="13" height="16"><defs id="SvgjsDefs1009"></defs><path id="SvgjsPath1010" d="M248 245L248 255C248 255.552 247.552 256 247 256L238 256C237.447 256 237 255.552 237 255L237 245C236.447 245 236 244.553 236 244L236 243C236 242.447 236.447 242 237 242L240 242L240 240.5C240 240.224 240.224 240 240.5 240L244.5 240C244.775 240 245 240.224 245 240.5L245 242L248 242C248.552 242 249 242.447 249 243L249 244C249 244.553 248.552 245 248 245ZM238 254.5C238 254.776 238.224 255 238.5 255L246.5 255C246.775 255 247 254.776 247 254.5L247 245L238 245ZM247.5 243L237.5 243C237.224 243 237 243.224 237 243.5C237 243.776 237.224 244 237.5 244L247.5 244C247.775 244 248 243.776 248 243.5C248 243.224 247.775 243 247.5 243ZM241 254L240 254L240 247L241 247ZM243 254L242 254L242 247L243 247ZM244 241L241 241L241 242L244 242ZM245 247L244 247L244 254L245 254Z " fill="#1bccc7" transform="matrix(1,0,0,1,-236,-240)"></path></svg>