<svg id="Layer_1" data-name="Layer 1" xmlns="http://www.w3.org/2000/svg" viewBox="0 0 16 16"><defs><style>.cls-1{fill:#1bccc7;fill-rule:evenodd;}</style></defs><title>Artboard 3</title><path class="cls-1" d="M14,16H3a1,1,0,0,1-1-1V13H1.5a.5.5,0,0,1,0-1H2V10H1.5a.5.5,0,1,1,0-1H2V7H1.5a.5.5,0,0,1,0-1H2V4H1.5a.5.5,0,0,1,0-1H2V1A1,1,0,0,1,3,0H14a1,1,0,0,1,1,1V15A1,1,0,0,1,14,16ZM11,1H3.5a.5.5,0,0,0-.5.5V3h.5a.5.5,0,0,1,0,1H3V6h.5a.5.5,0,0,1,0,1H3V9h.5a.5.5,0,1,1,0,1H3v2h.5a.5.5,0,0,1,0,1H3v1.5a.5.5,0,0,0,.5.5H11Zm3,.5a.5.5,0,0,0-.5-.5H12V15h1.5a.5.5,0,0,0,.5-.5Z"/></svg>