<svg id="SvgjsSvg1000" xmlns="http://www.w3.org/2000/svg" version="1.1" xmlns:xlink="http://www.w3.org/1999/xlink" xmlns:svgjs="http://svgjs.com/svgjs" width="13" height="16"><defs id="SvgjsDefs1001"></defs><path id="SvgjsPath1007" d="M159.5 256L147.5 256C147.224 256 147 255.776 147 255.5C147 255.224 147.224 255 147.5 255L159.5 255C159.776 255 160 255.224 160 255.5C160 255.776 159.776 256 159.5 256ZM158.857 247.332C159.048 247.142 159.048 246.833 158.857 246.643C158.667 246.451 158.357 246.451 158.167 246.643L154 251.224L154 240.499C154 240.22299999999998 153.776 240 153.5 240C153.224 240 153 240.223 153 240.499L153 251.224L148.833 246.643C148.642 246.451 148.334 246.451 148.143 246.643C147.952 246.833 147.952 247.142 148.143 247.332L153.099 252.78199999999998C153.10399999999998 252.79 153.113 252.79299999999998 153.11999999999998 252.801C153.13199999999998 252.81799999999998 153.12699999999998 252.84199999999998 153.14299999999997 252.856C153.16199999999998 252.876 153.18999999999997 252.87 153.21099999999998 252.885C153.283 252.94299999999998 153.367 252.982 153.463 252.98999999999998C153.475 252.98999999999998 153.482 252.998 153.493 252.998C153.49599999999998 252.998 153.49699999999999 252.999 153.5 252.999C153.502 252.999 153.504 252.998 153.507 252.998C153.514 252.998 153.519 252.994 153.525 252.994C153.644 252.988 153.75 252.941 153.833 252.867C153.839 252.861 153.85 252.864 153.857 252.856C153.864 252.85 153.861 252.839 153.867 252.832C153.873 252.826 153.87199999999999 252.815 153.87699999999998 252.809Z " fill="#1bccc7" transform="matrix(1,0,0,1,-147,-240)"></path></svg>