<svg id="SvgjsSvg1000" xmlns="http://www.w3.org/2000/svg" version="1.1" xmlns:xlink="http://www.w3.org/1999/xlink" xmlns:svgjs="http://svgjs.com/svgjs" width="73" height="121"><defs id="SvgjsDefs1001"></defs><path id="SvgjsPath1007" d="M632.008 256.001C632.008 256.001 596.009 317.25699999999995 596.009 342.873C596.009 361.179 612.126 376.015 632.008 376.015C651.889 376.015 668.0060000000001 361.179 668.0060000000001 342.873C668.0060000000001 317.257 632.008 256.001 632.008 256.001Z " fill="#1bccc7" transform="matrix(1,0,0,1,-596,-256)"></path><path id="SvgjsPath1008" d="M649.812 352.683C650.335 353.877 649.778 355.268 648.572 355.783C647.362 356.302 645.963 355.75300000000004 645.44 354.55400000000003C643.1450000000001 349.28900000000004 637.715 345.889 631.609 345.889C625.365 345.889 619.903 349.289 617.702 354.55C617.322 355.457 616.434 356.005 615.5 356.005C615.197 356.005 614.888 355.944 614.589 355.825C613.3720000000001 355.322 612.798 353.943 613.302 352.736C616.244 345.709 623.4350000000001 341.17 631.609 341.17C639.618 341.17 646.7620000000001 345.685 649.812 352.683ZM619.981 320C622.698 320 624.903 322.186 624.903 324.879C624.903 327.577 622.698 329.759 619.981 329.759C617.263 329.759 615.058 327.577 615.058 324.879C615.058 322.18600000000004 617.263 320 619.981 320ZM642.304 320C645.021 320 647.227 322.186 647.227 324.879C647.227 327.577 645.021 329.759 642.304 329.759C639.586 329.759 637.382 327.577 637.382 324.879C637.382 322.18600000000004 639.5859999999999 320 642.304 320ZM611.763 330.462C610.508 332.264 610.2520000000001 333.763 610.2520000000001 333.763C609.9530000000001 335.457 609.0260000000001 336.417 609.0260000000001 336.417C606.9920000000001 338.53099999999995 604.8910000000001 336.50199999999995 604.8910000000001 336.50199999999995C602.8240000000001 334.54699999999997 605.0150000000001 332.27199999999993 605.0150000000001 332.27199999999993C606.8990000000001 330.31999999999994 611.7630000000001 330.46199999999993 611.7630000000001 330.46199999999993ZM605.337 344.568C605.337 344.568 603.81 346.15 605.251 347.515C605.251 347.515 606.712 348.924 608.131 347.453C608.131 347.453 608.775 346.784 608.985 345.604C608.985 345.604 609.158 344.56399999999996 610.034 343.30699999999996C610.034 343.30699999999996 606.647 343.20699999999994 605.337 344.568Z " fill="#31384c" transform="matrix(1,0,0,1,-596,-256)"></path></svg>