<svg id="SvgjsSvg1000" xmlns="http://www.w3.org/2000/svg" version="1.1" xmlns:xlink="http://www.w3.org/1999/xlink" xmlns:svgjs="http://svgjs.com/svgjs" width="30" height="30"><defs id="SvgjsDefs1001"></defs><path id="SvgjsPath1007" d="M1013 369C1021.28 369 1028 375.716 1028 384C1028 392.284 1021.28 399 1013 399C1004.72 399 998 392.284 998 384C998 375.716 1004.72 369 1013 369Z " fill="#353d53" transform="matrix(1,0,0,1,-998,-369)"></path><path id="SvgjsPath1008" d="M1012.04 386.314C1012.11 386.634 1012.11 386.946 1012.03 387.25100000000003C1011.9499999999999 387.55600000000004 1011.78 387.83200000000005 1011.54 388.07800000000003L1009.77 389.78700000000003C1009.5799999999999 389.97 1009.37 390.11100000000005 1009.13 390.211C1008.89 390.31100000000004 1008.64 390.361 1008.38 390.361C1008.11 390.361 1007.86 390.311 1007.63 390.211C1007.39 390.111 1007.17 389.97 1006.98 389.78700000000003C1006.6 389.40400000000005 1006.41 388.939 1006.41 388.39300000000003C1006.41 387.846 1006.6 387.386 1006.98 387.01200000000006L1008.71 385.22100000000006C1008.89 385.03800000000007 1009.1 384.89700000000005 1009.34 384.7970000000001C1009.58 384.69700000000006 1009.84 384.6460000000001 1010.1 384.6460000000001C1010.19 384.6460000000001 1010.28 384.6530000000001 1010.37 384.6670000000001C1010.45 384.6810000000001 1010.54 384.7010000000001 1010.62 384.72800000000007L1011.3 384.0450000000001C1011.1099999999999 383.95400000000006 1010.92 383.8860000000001 1010.7099999999999 383.8400000000001C1010.5099999999999 383.7940000000001 1010.31 383.7710000000001 1010.0999999999999 383.7710000000001C1009.7299999999999 383.7710000000001 1009.3799999999999 383.8420000000001 1009.0299999999999 383.98300000000006C1008.6799999999998 384.12500000000006 1008.3599999999999 384.33200000000005 1008.0899999999998 384.6050000000001L1006.3699999999998 386.3830000000001C1006.0799999999998 386.6650000000001 1005.8699999999998 386.9800000000001 1005.7399999999998 387.3260000000001C1005.5999999999998 387.67300000000006 1005.5299999999997 388.0280000000001 1005.5299999999997 388.3930000000001C1005.5299999999997 388.75700000000006 1005.5999999999998 389.11500000000007 1005.7399999999998 389.46600000000007C1005.8699999999998 389.81700000000006 1006.0799999999998 390.1290000000001 1006.3699999999998 390.40200000000004C1006.6399999999998 390.68500000000006 1006.9499999999998 390.89500000000004 1007.2999999999997 391.03100000000006C1007.6499999999997 391.16800000000006 1008.0099999999998 391.23600000000005 1008.3799999999998 391.23600000000005C1008.7399999999998 391.23600000000005 1009.0999999999998 391.16800000000006 1009.4499999999998 391.03100000000006C1009.7999999999998 390.89500000000004 1010.1099999999998 390.68500000000006 1010.3899999999999 390.40200000000004L1012.1499999999999 388.69300000000004C1012.5799999999998 388.27400000000006 1012.8399999999999 387.78900000000004 1012.9299999999998 387.237C1013.0199999999999 386.68600000000004 1012.9599999999998 386.15000000000003 1012.7399999999998 385.63100000000003ZM1009.58 387.244C1009.62 387.29 1009.6600000000001 387.324 1009.72 387.34700000000004C1009.77 387.37000000000006 1009.83 387.38100000000003 1009.88 387.38100000000003C1009.9399999999999 387.38100000000003 1009.99 387.37 1010.04 387.34700000000004C1010.0999999999999 387.324 1010.15 387.29 1010.1999999999999 387.244L1015.4999999999999 381.91200000000003C1015.5799999999999 381.821 1015.6199999999999 381.716 1015.6199999999999 381.598C1015.6199999999999 381.479 1015.5799999999999 381.379 1015.4999999999999 381.297C1015.4099999999999 381.206 1015.2999999999998 381.16 1015.1899999999999 381.16C1015.0699999999999 381.16 1014.9599999999999 381.206 1014.8699999999999 381.297L1009.5799999999999 386.629C1009.4899999999999 386.72 1009.4399999999999 386.82500000000005 1009.4399999999999 386.94300000000004C1009.4399999999999 387.06200000000007 1009.4899999999999 387.16200000000003 1009.5799999999999 387.244ZM1019.33 379.007C1019.46 379.358 1019.5300000000001 379.716 1019.5300000000001 380.08C1019.5300000000001 380.445 1019.46 380.8 1019.33 381.14599999999996C1019.19 381.49299999999994 1018.98 381.80699999999996 1018.7 382.09L1016.94 383.854C1016.6600000000001 384.127 1016.35 384.334 1016 384.476C1015.65 384.617 1015.29 384.687 1014.93 384.687C1014.7399999999999 384.687 1014.56 384.67400000000004 1014.38 384.646C1014.2 384.619 1014.02 384.569 1013.85 384.49600000000004L1014.5400000000001 383.79900000000004C1014.6100000000001 383.80800000000005 1014.6700000000001 383.81300000000005 1014.7300000000001 383.81300000000005C1014.8000000000002 383.81300000000005 1014.8600000000001 383.81300000000005 1014.9300000000002 383.81300000000005C1015.1900000000002 383.81300000000005 1015.4400000000002 383.76300000000003 1015.6800000000002 383.66200000000003C1015.9300000000002 383.562 1016.1400000000002 383.42100000000005 1016.3200000000002 383.23800000000006L1018.0800000000002 381.46100000000007C1018.4700000000001 381.08700000000005 1018.6600000000002 380.62700000000007 1018.6600000000002 380.0800000000001C1018.6600000000002 379.5330000000001 1018.4700000000001 379.0680000000001 1018.0800000000002 378.6860000000001C1017.8900000000001 378.5030000000001 1017.6800000000002 378.3620000000001 1017.4400000000002 378.2620000000001C1017.2000000000002 378.1620000000001 1016.9500000000002 378.1110000000001 1016.6900000000002 378.1110000000001C1016.4200000000002 378.1110000000001 1016.1700000000002 378.1620000000001 1015.9400000000002 378.2620000000001C1015.7000000000002 378.36200000000014 1015.4900000000001 378.5030000000001 1015.2900000000002 378.6860000000001L1013.5300000000002 380.3950000000001C1013.2700000000002 380.6590000000001 1013.1000000000003 380.9670000000001 1013.0200000000002 381.3170000000001C1012.9400000000002 381.6680000000001 1012.9500000000002 382.01300000000015 1013.0500000000002 382.35000000000014L1012.3700000000002 383.03300000000013C1012.1100000000002 382.5050000000001 1012.0300000000002 381.93900000000014 1012.1200000000002 381.33800000000014C1012.2100000000003 380.73600000000016 1012.4800000000002 380.21700000000016 1012.9200000000002 379.7790000000001L1014.6800000000002 378.0700000000001C1014.9500000000002 377.7880000000001 1015.2700000000002 377.5780000000001 1015.6200000000002 377.4410000000001C1015.9700000000003 377.30500000000006 1016.3200000000003 377.2360000000001 1016.6900000000003 377.2360000000001C1017.0500000000003 377.2360000000001 1017.4100000000003 377.3050000000001 1017.7600000000003 377.4410000000001C1018.1100000000004 377.5780000000001 1018.4300000000003 377.78800000000007 1018.7000000000004 378.0700000000001C1018.9800000000004 378.3440000000001 1019.1900000000004 378.6560000000001 1019.3300000000004 379.0070000000001Z " fill="#ffffff" transform="matrix(1,0,0,1,-998,-369)"></path></svg>