<svg id="Layer_1" data-name="Layer 1" xmlns="http://www.w3.org/2000/svg" viewBox="0 0 16 16"><defs><style>.cls-1{fill:#fff;}</style></defs><title>Artboard 4</title><path class="cls-1" d="M14.82,4.45a4.16,4.16,0,0,1,1.18,3A5,5,0,0,1,15.73,9,5.51,5.51,0,0,1,15,10.49a3.69,3.69,0,0,1-1.25,1.08A3.73,3.73,0,0,1,12,12a.51.51,0,0,1-.5-.5.47.47,0,0,1,0-.2.53.53,0,0,1,.11-.16.51.51,0,0,1,.16-.11A.5.5,0,0,1,12,11h.14a2.26,2.26,0,0,0,.81-.15,2.37,2.37,0,0,0,.7-.41,3.63,3.63,0,0,0,1-1.36,4.91,4.91,0,0,0,.26-.83A4.05,4.05,0,0,0,15,7.41a3.19,3.19,0,0,0-.48-1.7,3.58,3.58,0,0,0-3-1.71l-.36,0-.11-.34A3.44,3.44,0,0,0,7.47,1a3.87,3.87,0,0,0-3,1.2A4.31,4.31,0,0,0,3.38,5.27h0l0,.47L3,5.81a2.21,2.21,0,0,0-1.41.89A2.69,2.69,0,0,0,1,8.39a2.64,2.64,0,0,0,.71,1.84A2.2,2.2,0,0,0,3.38,11h.44a.47.47,0,0,1,.36.15.5.5,0,0,1,.1.54.6.6,0,0,1-.1.16A.42.42,0,0,1,4,12a.52.52,0,0,1-.2,0H3.38A3.13,3.13,0,0,1,1,10.94,3.62,3.62,0,0,1,0,8.39,3.69,3.69,0,0,1,.67,6.23a3.33,3.33,0,0,1,1.72-1.3A5.3,5.3,0,0,1,3.93,1.4,4.79,4.79,0,0,1,7.47,0a4.73,4.73,0,0,1,2.79.8A4.6,4.6,0,0,1,11.92,3,4.55,4.55,0,0,1,14.82,4.45Z"/><path class="cls-1" d="M10.22,13.27a.28.28,0,0,1,0,.46l-1.84,2v0l-.13.12A.36.36,0,0,1,8,16a.38.38,0,0,1-.26-.11l-.12-.12v0l-1.81-2a.39.39,0,0,1,0-.54l.12-.07a.35.35,0,0,1,.26-.09.45.45,0,0,1,.26.12L7.5,14.38V8.62L6.44,9.81a.45.45,0,0,1-.26.12.35.35,0,0,1-.26-.09L5.8,9.77a.39.39,0,0,1,0-.54l1.81-2v0l.12-.12A.38.38,0,0,1,8,7a.36.36,0,0,1,.26.11l.13.12v0l1.84,2a.28.28,0,0,1,0,.46l-.13.11a.28.28,0,0,1-.24.11.34.34,0,0,1-.26-.11L8.5,8.62v5.76l1.09-1.22A.34.34,0,0,1,9.85,13a.28.28,0,0,1,.24.11Z"/></svg>