<svg id="Notifications" xmlns="http://www.w3.org/2000/svg" width="40" height="40" viewBox="0 0 40 40">
  <metadata><?xpacket begin="﻿" id="W5M0MpCehiHzreSzNTczkc9d"?>
<x:xmpmeta xmlns:x="adobe:ns:meta/" x:xmptk="Adobe XMP Core 5.6-c138 79.159824, 2016/09/14-01:09:01        ">
   <rdf:RDF xmlns:rdf="http://www.w3.org/1999/02/22-rdf-syntax-ns#">
      <rdf:Description rdf:about=""/>
   </rdf:RDF>
</x:xmpmeta>
                                                                                                    
                                                                                                    
                                                                                                    
                                                                                                    
                                                                                                    
                                                                                                    
                                                                                                    
                                                                                                    
                                                                                                    
                                                                                                    
                                                                                                    
                                                                                                    
                                                                                                    
                                                                                                    
                                                                                                    
                                                                                                    
                                                                                                    
                                                                                                    
                                                                                                    
                                                                                                    
                           
<?xpacket end="w"?></metadata>
<defs>
    <style>
      .cls-1 {
        fill: #f7e646;
      }

      .cls-2 {
        fill: #424c68;
        fill-rule: evenodd;
      }
    </style>
  </defs>
  <g>
    <circle id="Ellipse_1_copy_3" data-name="Ellipse 1 copy 3" class="cls-1" cx="20" cy="20" r="20"/>
    <path id="share" class="cls-2" d="M16.316,23.586a0.445,0.445,0,0,1-.156-0.344,0.494,0.494,0,0,1,.156-0.359l6.047-6.094a0.491,0.491,0,0,1,.719,0,0.468,0.468,0,0,1,.141.344,0.521,0.521,0,0,1-.141.359L17.02,23.586a0.528,0.528,0,0,1-.172.117,0.469,0.469,0,0,1-.375,0,0.383,0.383,0,0,1-.156-0.117h0Zm2.813-1.062,0.8-.781a3.268,3.268,0,0,1,.219,1.836,2.964,2.964,0,0,1-.891,1.664L17.238,27.2a2.99,2.99,0,0,1-1.07.719,3.328,3.328,0,0,1-2.453,0,3.343,3.343,0,0,1-1.789-1.789,3.353,3.353,0,0,1-.234-1.227,3.294,3.294,0,0,1,.234-1.219,3.157,3.157,0,0,1,.719-1.078l1.969-2.031a3.182,3.182,0,0,1,1.07-.711,3.258,3.258,0,0,1,1.226-.242,3.169,3.169,0,0,1,.7.078,3.245,3.245,0,0,1,.672.234l-0.781.781a1.793,1.793,0,0,0-.289-0.07,1.957,1.957,0,0,0-.3-0.023,2.253,2.253,0,0,0-1.594.656L13.348,23.32a2.119,2.119,0,0,0-.656,1.578,2.17,2.17,0,0,0,.656,1.594,2.428,2.428,0,0,0,.734.484,2.235,2.235,0,0,0,1.719,0,2.43,2.43,0,0,0,.734-0.484l2.016-1.953a2.1,2.1,0,0,0,.563-0.945,2.188,2.188,0,0,0,.016-1.07h0ZM26.738,13.1a2.989,2.989,0,0,1,.719,1.07,3.352,3.352,0,0,1,.234,1.226,3.291,3.291,0,0,1-.234,1.219,3.154,3.154,0,0,1-.719,1.078l-2.016,2.016a3.184,3.184,0,0,1-1.07.711,3.255,3.255,0,0,1-1.227.242,4.2,4.2,0,0,1-.625-0.047,2.525,2.525,0,0,1-.609-0.172l0.8-.8a1.53,1.53,0,0,0,.219.016h0.219a2.254,2.254,0,0,0,1.594-.656l2.016-2.031a2.118,2.118,0,0,0,.656-1.578,2.17,2.17,0,0,0-.656-1.594A2.435,2.435,0,0,0,25.3,13.32a2.234,2.234,0,0,0-1.719,0,2.434,2.434,0,0,0-.735.484l-2.016,1.953a2.111,2.111,0,0,0-.586,1.055,2.317,2.317,0,0,0,.039,1.18l-0.781.781a3.239,3.239,0,0,1-.281-1.937,3.121,3.121,0,0,1,.906-1.781L22.145,13.1a2.988,2.988,0,0,1,1.07-.719,3.327,3.327,0,0,1,2.453,0,2.992,2.992,0,0,1,1.07.719h0Z"/>
  </g>
</svg>
