<svg id="Layer_1" data-name="Layer 1" xmlns="http://www.w3.org/2000/svg" viewBox="0 0 363 621"><defs><style>.cls-1{fill:#f3fcfc;}</style></defs><title>Artboard 1</title><path class="cls-1" d="M181.51,0S0,317,0,449.51C0,544.24,81.27,621,181.51,621S363,544.24,363,449.51C363,317,181.51,0,181.51,0Zm0,614.53c-97.21,0-176-74.81-176-167.11,0-129.17,176-438,176-438s176,308.86,176,438C357.51,539.72,278.71,614.53,181.51,614.53Z"/><path class="cls-1" d="M242.82,527.11l-6.22-5.86V415.81q0-27.52-13-40T182,363.44q-32.53,0-53.06,11.71t-20.54,29.47q0,6.39,2.4,8.79c1.6,1.6,4.6,2.4,9,2.4h25.07V385.27a90,90,0,0,1,14-4.26,66.83,66.83,0,0,1,13.69-1.42q18.48,0,25.95,8.88T206,420.24v11.54q-68.08,16.33-87.2,29.65T99.72,498q0,20.94,12.71,33.72t33.87,12.79q12.79,0,27.46-5.77T206,520.9l4.8,21.12H262V528.88ZM206,508.65a177.61,177.61,0,0,1-25.51,12.25Q169.4,525,160.88,525q-13.33,0-21.25-8.08t-7.91-21.74q0-17.05,14.31-27.52t60-23.08Z"/></svg>