<svg id="SvgjsSvg1022" xmlns="http://www.w3.org/2000/svg" version="1.1" xmlns:xlink="http://www.w3.org/1999/xlink" xmlns:svgjs="http://svgjs.com/svgjs" width="77" height="33"><defs id="SvgjsDefs1023"></defs><path id="SvgjsPath1024" d="M150.998 70.0001C150.998 70.0001 141.99599999999998 85.312 141.99599999999998 91.7153C141.99599999999998 96.29129999999999 146.02599999999998 99.9997 150.998 99.9997C155.969 99.9997 159.998 96.2913 159.998 91.7153C159.998 85.312 150.998 70.0001 150.998 70.0001Z " fill="#1bccc7" transform="matrix(1,0,0,1,-130,-70)"></path><path id="SvgjsPath1025" d="M175.406 86.7285L176.627 86.8457L179.84 95.60539999999999L180.963 95.60539999999999L184.469 86.88479999999998L185.641 86.72849999999998L185.641 85.98629999999999L182.105 85.98629999999999L182.105 86.72849999999998L183.17999999999998 86.80659999999999L183.34599999999998 87.12889999999999L180.78699999999998 93.66209999999998L178.44299999999998 87.12889999999999L178.688 86.80659999999999L179.742 86.72849999999998L179.742 85.98629999999999L175.40599999999998 85.98629999999999ZM169.287 95.6054L169.287 94.8828L167.89100000000002 94.7852L167.549 94.4629L167.549 88.75C167.972 88.2487 168.36100000000002 87.8793 168.716 87.6416C169.071 87.404 169.40800000000002 87.2851 169.727 87.2851C169.935 87.2851 170.125 87.3259 170.298 87.4072C170.47 87.48870000000001 170.622 87.6074 170.752 87.7636L171.387 87.7636L171.387 86.0449C171.178 85.9538 170.977 85.8871 170.781 85.8447C170.586 85.8024 170.387 85.7812 170.186 85.7812C170.049 85.7812 169.946 85.7846 169.87800000000001 85.791C169.81 85.7976 169.746 85.81049999999999 169.68800000000002 85.8301C169.29700000000003 86.1426 168.924 86.4599 168.56900000000002 86.7822C168.21400000000003 87.1045 167.87400000000002 87.4316 167.549 87.7636L167.549 85.8887L166.787 85.8887L164.463 86.6015L164.463 87.2265L165.869 87.2265L165.869 94.4629L165.527 94.7852L164.463 94.8828L164.463 95.6054ZM190.09 86.6015L190.09 87.2265L191.486 87.2265L191.486 94.4629L191.14499999999998 94.7852L190.08999999999997 94.8828L190.08999999999997 95.6054L194.58199999999997 95.6054L194.58199999999997 94.8828L193.50799999999995 94.7852L193.16599999999994 94.4629L193.16599999999994 85.8887L192.38499999999993 85.8887ZM191.647 81.7822C191.423 82.0068 191.31099999999998 82.28190000000001 191.31099999999998 82.6074C191.31099999999998 82.9265 191.42299999999997 83.19669999999999 191.647 83.4179C191.87199999999999 83.63940000000001 192.144 83.75 192.463 83.75C192.78799999999998 83.75 193.063 83.6394 193.28799999999998 83.4179C193.51299999999998 83.1967 193.62499999999997 82.9265 193.62499999999997 82.6074C193.62499999999997 82.2885 193.51299999999998 82.0151 193.28799999999998 81.7871C193.063 81.5593 192.78799999999998 81.44529999999999 192.463 81.44529999999999C192.144 81.44529999999999 191.87199999999999 81.5576 191.647 81.78219999999999ZM204.778 85.8935C204.391 85.8188 203.97299999999998 85.7812 203.523 85.7812C202.397 85.7812 201.525 86.0254 200.906 86.5136C200.288 87.00189999999999 199.979 87.6921 199.979 88.584C199.979 89.1699 200.15900000000002 89.6615 200.52100000000002 90.0586C200.882 90.4557 201.56400000000002 90.8789 202.566 91.32809999999999C203.452 91.7319 204.012 92.0654 204.246 92.3291C204.48000000000002 92.5927 204.598 92.92649999999999 204.598 93.3301C204.598 93.81190000000001 204.42700000000002 94.2009 204.085 94.497C203.743 94.7934 203.28900000000002 94.9414 202.723 94.9414C202.436 94.9414 202.151 94.9023 201.86800000000002 94.8242C201.58500000000004 94.7461 201.30300000000003 94.62570000000001 201.02300000000002 94.4629L200.77900000000002 92.76360000000001L199.82200000000003 92.76360000000001L199.82200000000003 95.36130000000001C200.19300000000004 95.50460000000001 200.59900000000002 95.61040000000001 201.03800000000004 95.67870000000002C201.47800000000004 95.74700000000001 201.93800000000005 95.78120000000003 202.42000000000004 95.78120000000003C203.59200000000004 95.78120000000003 204.50800000000004 95.51600000000003 205.16900000000004 94.98530000000002C205.83000000000004 94.45480000000002 206.16000000000005 93.72070000000002 206.16000000000005 92.78320000000002C206.16000000000005 92.42520000000002 206.09500000000006 92.09810000000002 205.96500000000006 91.80180000000003C205.83500000000006 91.50550000000003 205.64600000000007 91.25970000000002 205.39800000000005 91.06440000000003C205.06000000000006 90.78460000000004 204.51300000000006 90.47210000000004 203.75800000000007 90.12690000000003C203.54300000000006 90.02930000000003 203.38300000000007 89.95450000000004 203.27900000000005 89.90230000000004C202.61500000000007 89.58340000000004 202.16600000000005 89.29360000000004 201.93200000000004 89.03320000000004C201.69700000000003 88.77290000000004 201.58000000000004 88.45700000000004 201.58000000000004 88.08590000000004C201.58000000000004 87.63030000000003 201.72700000000003 87.27540000000003 202.02000000000004 87.02150000000003C202.31300000000005 86.76750000000003 202.71900000000005 86.64060000000003 203.24000000000004 86.64060000000003C203.48100000000005 86.64060000000003 203.72200000000004 86.67640000000003 203.96300000000005 86.74800000000003C204.20400000000006 86.81970000000004 204.45800000000006 86.92720000000003 204.72500000000005 87.07030000000003L204.88100000000006 88.48630000000003L205.86700000000005 88.48630000000003L205.86700000000005 86.22070000000002C205.52900000000005 86.07750000000003 205.16600000000005 85.96850000000002 204.77800000000005 85.89350000000002Z " fill="#1bccc7" transform="matrix(1,0,0,1,-130,-70)"></path><path id="SvgjsPath1026" d="M135.287 97.5664C135.287 99.0898 135.08 100.19 134.667 100.867C134.25300000000001 101.54400000000001 133.594 101.88300000000001 132.689 101.88300000000001C132.572 101.88300000000001 132.45499999999998 101.876 132.338 101.86300000000001C132.221 101.85000000000001 132.10399999999998 101.83100000000002 131.986 101.805L131.703 101.54100000000001L131.225 99.02150000000002L130.111 99.02150000000002L130.111 102.36100000000002C130.57399999999998 102.52400000000002 131.021 102.64600000000002 131.45399999999998 102.72800000000002C131.88699999999997 102.80900000000003 132.31199999999998 102.85000000000002 132.72899999999998 102.85000000000002C134.226 102.85000000000002 135.326 102.41800000000002 136.029 101.55600000000003C136.732 100.69300000000003 137.084 99.33730000000003 137.084 97.48830000000002L137.084 83.38860000000003L137.42600000000002 83.10550000000002L138.66600000000003 82.98830000000002L138.66600000000003 82.18750000000003L133.60700000000003 82.18750000000003L133.60700000000003 82.98830000000002L134.94500000000002 83.10550000000002L135.28700000000003 83.38860000000003Z " fill="#1bccc7" transform="matrix(1,0,0,1,-130,-70)"></path><path id="SvgjsPath1027" d="M151.146 94.4433C150.73899999999998 94.5932 150.379 94.66789999999999 150.06599999999997 94.66789999999999C149.57799999999997 94.66789999999999 149.18899999999996 94.51999999999998 148.89899999999997 94.22359999999999C148.60999999999999 93.92739999999999 148.46499999999997 93.52869999999999 148.46499999999997 93.0273C148.46499999999997 92.4023 148.72699999999998 91.89789999999999 149.25099999999998 91.5136C149.77499999999998 91.1296 150.87399999999997 90.70649999999999 152.54699999999997 90.2441L152.54699999999997 93.76950000000001C152.01999999999998 94.069 151.55199999999996 94.29360000000001 151.14599999999996 94.44330000000001ZM152.811 95.6054L155.62300000000002 95.6054L155.62300000000002 94.8828L154.568 94.7852L154.227 94.4629L154.227 88.66210000000001C154.227 87.653 153.989 86.92060000000001 153.514 86.46480000000001C153.038 86.0092 152.27700000000002 85.78120000000001 151.229 85.78120000000001C150.037 85.78120000000001 149.06500000000003 85.99610000000001 148.31400000000002 86.42580000000001C147.562 86.8555 147.18600000000004 87.39590000000001 147.18600000000004 88.04690000000001C147.18600000000004 88.28120000000001 147.23000000000005 88.4424 147.31700000000004 88.53020000000001C147.40500000000003 88.61810000000001 147.57000000000002 88.66210000000001 147.81100000000004 88.66210000000001L149.18800000000005 88.66210000000001L149.18800000000005 86.98240000000001C149.45400000000004 86.87830000000001 149.71200000000005 86.80020000000002 149.95900000000003 86.74800000000002C150.20600000000005 86.69600000000001 150.45700000000002 86.66990000000001 150.71100000000004 86.66990000000001C151.38800000000003 86.66990000000001 151.86300000000003 86.83270000000002 152.13700000000003 87.15820000000001C152.41000000000003 87.4838 152.54700000000003 88.0664 152.54700000000003 88.90620000000001L152.54700000000003 89.54100000000001C150.05300000000003 90.14000000000001 148.45700000000002 90.68360000000001 147.75700000000003 91.17190000000001C147.05700000000004 91.6602 146.70700000000002 92.33080000000001 146.70700000000002 93.18360000000001C146.70700000000002 93.95190000000001 146.94000000000003 94.57030000000002 147.40500000000003 95.03900000000002C147.87100000000004 95.50780000000002 148.49100000000004 95.74220000000001 149.26600000000002 95.74220000000001C149.734 95.74220000000001 150.23700000000002 95.6363 150.77400000000003 95.4248C151.31200000000004 95.2133 151.90200000000002 94.8861 152.54700000000003 94.44330000000001Z " fill="#ffffff" transform="matrix(1,0,0,1,-130,-70)"></path></svg>