<svg id="SvgjsSvg1000" xmlns="http://www.w3.org/2000/svg" version="1.1" xmlns:xlink="http://www.w3.org/1999/xlink" xmlns:svgjs="http://svgjs.com/svgjs" width="364" height="623"><defs id="SvgjsDefs1001"><clipPath id="SvgjsClipPath1010"><path id="SvgjsPath1009" d="M926.5 64.9988C926.5 64.9988 744.994 381.962 744.994 514.511C744.994 609.237 826.255 686.001 926.5 686.001C1026.74 686.001 1108 609.237 1108 514.511C1108 381.962 926.5 64.99879999999996 926.5 64.99879999999996Z " fill="#ffffff"></path></clipPath></defs><path id="SvgjsPath1007" d="M925.511 585.895C918.102 588.619 911.5559999999999 589.978 905.866 589.978C896.978 589.978 889.895 587.2879999999999 884.6229999999999 581.901C879.348 576.5179999999999 876.712 569.27 876.712 560.156C876.712 548.794 881.481 539.625 891.0219999999999 532.64C900.5609999999999 525.659 920.5609999999999 517.968 951.02 509.563L951.02 573.6469999999999C941.4209999999999 579.092 932.9159999999999 583.174 925.511 585.895ZM955.82 607.02L1007.0200000000001 607.02L1007.0200000000001 593.884L987.8190000000001 592.109L981.5970000000001 586.2510000000001L981.5970000000001 480.80500000000006C981.5970000000001 462.4630000000001 977.2690000000001 449.14900000000006 968.6190000000001 440.86300000000006C959.9670000000001 432.58200000000005 946.1020000000001 428.43800000000005 927.0210000000002 428.43800000000005C905.3330000000002 428.43800000000005 887.6450000000002 432.34400000000005 873.9580000000002 440.15400000000005C860.2690000000002 447.96500000000003 853.4240000000002 457.78900000000004 853.4240000000002 469.62200000000007C853.4240000000002 473.88200000000006 854.2250000000003 476.8110000000001 855.8250000000002 478.40900000000005C857.4240000000002 480.00600000000003 860.4160000000002 480.80500000000006 864.8020000000001 480.80500000000006L889.8680000000002 480.80500000000006L889.8680000000002 450.27200000000005C894.7250000000001 448.38100000000003 899.4060000000002 446.96000000000004 903.9110000000002 446.01200000000006C908.4140000000002 445.06600000000003 912.9780000000002 444.59200000000004 917.5990000000002 444.59200000000004C929.9240000000002 444.59200000000004 938.5770000000001 447.55100000000004 943.5540000000002 453.468C948.5310000000002 459.387 951.0200000000002 469.976 951.0200000000002 485.243L951.0200000000002 496.782C905.6280000000002 507.671 876.5620000000002 517.5509999999999 863.8240000000002 526.427C851.0830000000002 535.304 844.7140000000002 547.494 844.7140000000002 562.996C844.7140000000002 576.962 848.9500000000002 588.204 857.4240000000002 596.7239999999999C865.8960000000002 605.2449999999999 877.1850000000002 609.5049999999999 891.2900000000002 609.5049999999999C899.8220000000002 609.5049999999999 908.9770000000002 607.5809999999999 918.7540000000001 603.7359999999999C928.5320000000002 599.8919999999998 939.2880000000001 593.9449999999998 951.0200000000001 585.8949999999999Z " fill="#24deda" transform="matrix(1,0,0,1,-744,-64)"></path><path id="SvgjsPath1008" d="M926.5 64.9988C926.5 64.9988 744.994 381.962 744.994 514.511C744.994 609.237 826.255 686.001 926.5 686.001C1026.74 686.001 1108 609.237 1108 514.511C1108 381.962 926.5 64.99879999999996 926.5 64.99879999999996Z " fill-opacity="0" fill="#ffffff" stroke-dasharray="0" stroke-linejoin="miter" stroke-linecap="butt" stroke-opacity="1" stroke="#1bccc7" stroke-miterlimit="50" stroke-width="12" clip-path="url(&quot;#SvgjsClipPath1010&quot;)" transform="matrix(1,0,0,1,-744,-64)"></path></svg>