<svg id="SvgjsSvg1014" xmlns="http://www.w3.org/2000/svg" version="1.1" xmlns:xlink="http://www.w3.org/1999/xlink" xmlns:svgjs="http://svgjs.com/svgjs" width="14" height="16"><defs id="SvgjsDefs1015"></defs><path id="SvgjsPath1016" d="M482 245L482 256L468 256L468 240L477 240ZM481 246L476 246L476 241L469 241L469 255L481 255ZM477 245L480.59 245L477 241.41ZM478 250.5C478 250.64 477.94 250.77 477.84 250.86C477.84 250.86 477.84 250.86 477.84 250.87L475.85999999999996 252.86L475.12999999999994 252.13000000000002L476.25999999999993 251.00000000000003L471.99999999999994 251.00000000000003L471.99999999999994 250.00000000000003L476.25999999999993 250.00000000000003L475.12999999999994 248.87000000000003L475.85999999999996 248.14000000000004L477.84 250.13000000000005C477.84 250.14000000000004 477.84 250.14000000000004 477.84 250.14000000000004C477.94 250.23000000000005 478 250.36000000000004 478 250.50000000000006Z " fill="#1bccc7" transform="matrix(1,0,0,1,-468,-240)"></path></svg>