<svg id="SvgjsSvg1000" xmlns="http://www.w3.org/2000/svg" version="1.1" xmlns:xlink="http://www.w3.org/1999/xlink" xmlns:svgjs="http://svgjs.com/svgjs" width="16" height="10"><defs id="SvgjsDefs1001"></defs><path id="SvgjsPath1007" d="M751 446.998C751 448.655 752.343 449.998 754 449.998C755.656 449.998 757 448.655 757 446.998C757 445.342 755.656 443.998 754 443.998C752.343 443.998 751 445.342 751 446.998ZM754 444.998C755.103 444.998 756 445.895 756 446.998C756 448.101 755.103 448.998 754 448.998C752.897 448.998 752 448.101 752 446.998C752 445.895 752.897 444.998 754 444.998C755.103 444.998 754 444.998 754 444.998ZM748.34 444.5C746.9 445.75 746 447 746 447C746 447 749.58 452 754 452C758.42 452 762 447 762 447C762 447 758.42 442 754 442C751.79 442 749.79 443.25 748.34 444.5ZM754 443C757.003 443 759.679 445.768 760.723 447.001C759.6819999999999 448.236 757.014 451 754 451C750.998 451 748.322 448.234 747.278 447C747.655 446.553 748.2470000000001 445.905 748.993 445.257C750.1880000000001 444.228 752.0260000000001 443 754 443C755.974 443 754 443 754 443Z " fill="#808ca0" transform="matrix(1,0,0,1,-746,-442)"></path></svg>