<svg id="SvgjsSvg1000" xmlns="http://www.w3.org/2000/svg" version="1.1" xmlns:xlink="http://www.w3.org/1999/xlink" xmlns:svgjs="http://svgjs.com/svgjs" width="152" height="14"><defs id="SvgjsDefs1001"><clipPath id="SvgjsClipPath1010"><path id="SvgjsPath1009" d="M566.791 622.209C567.7801400000001 618.77986 571.3618600000001 616.8018599999999 574.791 617.7909999999999L574.791 617.7909999999999C578.22014 618.78014 580.1981400000001 622.36186 579.2090000000001 625.7909999999999L579.2090000000001 625.7909999999999C578.21986 629.2201399999999 574.63814 631.19814 571.2090000000001 630.209L571.2090000000001 630.209C567.7798600000001 629.2198599999999 565.80186 625.6381399999999 566.791 622.209Z " fill="#ffffff"></path></clipPath><clipPath id="SvgjsClipPath1014"><path id="SvgjsPath1013" d="M704.791 622.209C705.7801400000001 618.77986 709.3618600000001 616.8018599999999 712.791 617.7909999999999L712.791 617.7909999999999C716.22014 618.78014 718.1981400000001 622.36186 717.2090000000001 625.7909999999999L717.2090000000001 625.7909999999999C716.21986 629.2201399999999 712.63814 631.19814 709.2090000000001 630.209L709.2090000000001 630.209C705.7798600000001 629.2198599999999 703.80186 625.6381399999999 704.791 622.209Z " fill="#ffffff"></path></clipPath></defs><path id="SvgjsPath1007" d="M566.791 622.209C567.7801400000001 618.77986 571.3618600000001 616.8018599999999 574.791 617.7909999999999L574.791 617.7909999999999C578.22014 618.78014 580.1981400000001 622.36186 579.2090000000001 625.7909999999999L579.2090000000001 625.7909999999999C578.21986 629.2201399999999 574.63814 631.19814 571.2090000000001 630.209L571.2090000000001 630.209C567.7798600000001 629.2198599999999 565.80186 625.6381399999999 566.791 622.209Z " fill="#ffffff" transform="matrix(1,0,0,1,-566,-617)"></path><path id="SvgjsPath1008" d="M566.791 622.209C567.7801400000001 618.77986 571.3618600000001 616.8018599999999 574.791 617.7909999999999L574.791 617.7909999999999C578.22014 618.78014 580.1981400000001 622.36186 579.2090000000001 625.7909999999999L579.2090000000001 625.7909999999999C578.21986 629.2201399999999 574.63814 631.19814 571.2090000000001 630.209L571.2090000000001 630.209C567.7798600000001 629.2198599999999 565.80186 625.6381399999999 566.791 622.209Z " fill-opacity="0" fill="#ffffff" stroke-dasharray="0" stroke-linejoin="miter" stroke-linecap="butt" stroke-opacity="1" stroke="#bababa" stroke-miterlimit="50" stroke-width="2" clip-path="url(&quot;#SvgjsClipPath1010&quot;)" transform="matrix(1,0,0,1,-566,-617)"></path><path id="SvgjsPath1011" d="M704.791 622.209C705.7801400000001 618.77986 709.3618600000001 616.8018599999999 712.791 617.7909999999999L712.791 617.7909999999999C716.22014 618.78014 718.1981400000001 622.36186 717.2090000000001 625.7909999999999L717.2090000000001 625.7909999999999C716.21986 629.2201399999999 712.63814 631.19814 709.2090000000001 630.209L709.2090000000001 630.209C705.7798600000001 629.2198599999999 703.80186 625.6381399999999 704.791 622.209Z " fill="#ffffff" transform="matrix(1,0,0,1,-566,-617)"></path><path id="SvgjsPath1012" d="M704.791 622.209C705.7801400000001 618.77986 709.3618600000001 616.8018599999999 712.791 617.7909999999999L712.791 617.7909999999999C716.22014 618.78014 718.1981400000001 622.36186 717.2090000000001 625.7909999999999L717.2090000000001 625.7909999999999C716.21986 629.2201399999999 712.63814 631.19814 709.2090000000001 630.209L709.2090000000001 630.209C705.7798600000001 629.2198599999999 703.80186 625.6381399999999 704.791 622.209Z " fill-opacity="0" fill="#ffffff" stroke-dasharray="0" stroke-linejoin="miter" stroke-linecap="butt" stroke-opacity="1" stroke="#1bccc7" stroke-miterlimit="50" stroke-width="2" clip-path="url(&quot;#SvgjsClipPath1014&quot;)" transform="matrix(1,0,0,1,-566,-617)"></path><path id="SvgjsPath1015" d="M708.6715 623.3285C709.04236 622.0425 710.3855000000001 621.3006399999999 711.6715 621.6714999999999L711.6715 621.6714999999999C712.9575 622.0423599999999 713.6993600000001 623.3855 713.3285000000001 624.6714999999999L713.3285000000001 624.6714999999999C712.9576400000001 625.9574999999999 711.6145 626.69936 710.3285000000001 626.3285L710.3285000000001 626.3285C709.0425000000001 625.95764 708.30064 624.6144999999999 708.6715 623.3285Z " fill="#1bccc7" transform="matrix(1,0,0,1,-566,-617)"></path></svg>