<svg id="SvgjsSvg1011" xmlns="http://www.w3.org/2000/svg" version="1.1" xmlns:xlink="http://www.w3.org/1999/xlink" xmlns:svgjs="http://svgjs.com/svgjs" width="17" height="16"><defs id="SvgjsDefs1012"></defs><path id="SvgjsPath1013" d="M341.751 255.98L327.904 255.98C327.35699999999997 255.98 326.915 255.536 326.915 254.98899999999998L326.915 241.111C326.915 240.564 327.357 240.12099999999998 327.904 240.12099999999998L336.813 240.12099999999998L336.813 241.111L327.904 241.111L327.904 254.98899999999998L341.751 254.98899999999998L341.751 245.07999999999998L342.741 245.07999999999998L342.741 254.98899999999998C342.741 255.53599999999997 342.298 255.98 341.751 255.98ZM340.811 245.048L333.358 252.436L333.207 252.436L333.168 252.42700000000002L330.088 253.50400000000002L329.38300000000004 252.88100000000003L330.343 249.65400000000002L330.349 249.62400000000002L330.349 249.44700000000003L337.98199999999997 242.20400000000004L339.414 240.53500000000003C339.991 239.96200000000002 341.005 239.96200000000002 341.58099999999996 240.53500000000003L342.24499999999995 241.163C342.8419999999999 241.756 342.93699999999995 242.906 342.33899999999994 243.49900000000002ZM331.44 249.823L333.01 251.411L339.933 244.501L338.405 242.954ZM330.381 252.517L332.35999999999996 251.853L331.01399999999995 250.53ZM341.648 242.065L340.858 241.251C340.763 241.156 340.556 241.011 340.419 241.011C340.282 241.011 340.154 241.063 340.058 241.158L338.931 242.27499999999998L340.522 243.90099999999998L341.649 242.783C341.847 242.58499999999998 341.847 242.26399999999998 341.648 242.065Z " fill="#1bccc7" transform="matrix(1,0,0,1,-326,-240)"></path></svg>