<svg id="Layer_1" data-name="Layer 1" xmlns="http://www.w3.org/2000/svg" viewBox="0 0 16 16"><defs><style>.cls-1{fill:#1bccc7;fill-rule:evenodd;}</style></defs><title>Artboard 8</title><path id="_Compound_Path_" data-name="&lt;Compound Path&gt;" class="cls-1" d="M15.64,13.2s-.2.18-2.69.26a2.6,2.6,0,0,0,0-1h1.53c.78-.27.59-1.61,0-1.88-.43-.19-2.18-.66-3.22-.92l-.14-.45V8.58A4.48,4.48,0,0,0,12.5,5.21C12.5,3.43,12.08,2,10,2a3.37,3.37,0,0,0-.42,0,3.5,3.5,0,0,0-1.67-.5A3.72,3.72,0,0,1,10,1c2.87,0,3.5,1.87,3.5,4.18a5.68,5.68,0,0,1-1.55,4,17.41,17.41,0,0,1,3.36,1.05A2.5,2.5,0,0,1,15.64,13.2ZM9.5,6.41a6.14,6.14,0,0,1-1.6,4.23,17.74,17.74,0,0,1,3.4,1.06,2.5,2.5,0,0,1,.33,3S11.31,15,6,15,.36,14.7.36,14.7a2.49,2.49,0,0,1,.34-3,17.11,17.11,0,0,1,3.4-1.06A6.13,6.13,0,0,1,2.5,6.41C2.5,4,3.13,2,6,2S9.5,4,9.5,6.41ZM6,3C3.92,3,3.5,4.55,3.5,6.44a5,5,0,0,0,1.38,3.61v.69l-.12.4c-.88.26-2.64.78-3.09,1s-1,1.56-.16,1.88h9c.78-.27.59-1.61,0-1.87-.43-.19-2.18-.66-3.22-.92l-.14-.45v-.69A5,5,0,0,0,8.5,6.44C8.5,4.55,8.08,3,6,3Z"/></svg>