<svg id="SvgjsSvg1008" xmlns="http://www.w3.org/2000/svg" version="1.1" xmlns:xlink="http://www.w3.org/1999/xlink" xmlns:svgjs="http://svgjs.com/svgjs" width="16" height="16"><defs id="SvgjsDefs1009"></defs><path id="SvgjsPath1010" d="M481.375 211.836C481.375 211.96800000000002 481.331 212.078 481.243 212.16600000000003C481.145 212.26400000000004 481.033 212.31300000000002 480.906 212.31300000000002C480.779 212.31300000000002 480.66700000000003 212.264 480.569 212.16600000000003L476.028 207.59600000000003C475.511 208.04500000000004 474.925 208.39700000000002 474.27000000000004 208.65000000000003C473.61600000000004 208.90400000000002 472.92300000000006 209.03100000000003 472.19000000000005 209.03100000000003C471.38000000000005 209.03100000000003 470.61800000000005 208.87700000000004 469.90500000000003 208.57000000000002C469.192 208.26200000000003 468.57000000000005 207.84500000000003 468.038 207.31700000000004C467.505 206.79000000000005 467.088 206.17000000000004 466.785 205.45700000000002C466.482 204.74400000000003 466.331 203.98300000000003 466.331 203.17200000000003C466.331 202.36100000000002 466.482 201.60000000000002 466.785 200.88700000000003C467.088 200.17400000000004 467.50500000000005 199.55400000000003 468.038 199.02600000000004C468.57 198.49900000000005 469.192 198.08200000000005 469.90500000000003 197.77400000000003C470.61800000000005 197.46600000000004 471.38000000000005 197.31300000000002 472.19000000000005 197.31300000000002C472.99100000000004 197.31300000000002 473.74800000000005 197.466 474.46100000000007 197.77400000000003C475.1740000000001 198.08200000000002 475.79600000000005 198.49900000000002 476.32900000000006 199.02600000000004C476.86100000000005 199.55400000000003 477.28100000000006 200.17400000000004 477.5880000000001 200.88700000000003C477.8960000000001 201.60000000000002 478.05000000000007 202.36100000000002 478.05000000000007 203.17200000000003C478.05000000000007 203.88500000000002 477.92800000000005 204.56100000000004 477.6840000000001 205.20100000000002C477.4390000000001 205.84000000000003 477.1070000000001 206.41400000000002 476.6880000000001 206.92200000000003L481.2430000000001 211.50700000000003C481.33100000000013 211.59500000000003 481.3750000000001 211.70500000000004 481.3750000000001 211.83600000000004ZM474.102 207.72C474.703 207.462 475.22499999999997 207.108 475.669 206.658C476.114 206.20899999999997 476.465 205.68699999999998 476.724 205.09099999999998C476.983 204.49499999999998 477.11199999999997 203.85599999999997 477.11199999999997 203.17199999999997C477.11199999999997 202.48799999999997 476.98299999999995 201.84899999999996 476.724 201.25299999999996C476.465 200.65699999999995 476.114 200.13499999999996 475.669 199.68599999999995C475.22499999999997 199.23599999999996 474.703 198.88199999999995 474.102 198.62399999999994C473.501 198.36499999999995 472.864 198.23499999999993 472.19 198.23499999999993C471.507 198.23499999999993 470.865 198.36499999999992 470.264 198.62399999999994C469.664 198.88199999999995 469.141 199.23599999999993 468.697 199.68599999999995C468.252 200.13499999999996 467.901 200.65699999999995 467.642 201.25299999999996C467.383 201.84899999999996 467.254 202.48799999999997 467.254 203.17199999999997C467.254 203.85599999999997 467.38300000000004 204.49499999999998 467.642 205.09099999999998C467.901 205.68699999999998 468.252 206.20899999999997 468.697 206.658C469.141 207.10799999999998 469.664 207.462 470.264 207.72C470.865 207.97899999999998 471.507 208.108 472.19 208.108C472.864 208.108 473.501 207.979 474.102 207.72Z " fill="#bababa" transform="matrix(1,0,0,1,-466,-197)"></path></svg>