<?xml version="1.0"?>
<!--Icons from directory ""-->
<svg xmlns="http://www.w3.org/2000/svg" width="17" height="34" viewBox="0 0 17 34"><svg xmlns:xlink="http://www.w3.org/1999/xlink" xmlns:svgjs="http://svgjs.com/svgjs" id="share-hover-active" height="17" width="17" version="1.1" y="0"><path id="share-hover-active-SvgjsPath1007" fill="#1bccc7" transform="translate(-775 -361)" d="m783.13 371.52c0.08 0.37 0.08 0.72-0.02 1.07-0.09 0.35-0.28 0.67-0.56 0.95l-2.01 1.95c-0.22 0.21-0.47 0.37-0.74 0.49-0.27 0.11-0.56 0.17-0.86 0.17s-0.59-0.06-0.86-0.17c-0.27-0.12-0.51-0.28-0.73-0.49-0.44-0.43-0.66-0.97-0.66-1.59 0-0.63 0.22-1.15 0.66-1.58l1.97-2.05c0.2-0.21 0.45-0.37 0.72-0.48 0.28-0.11 0.57-0.17 0.87-0.17 0.1 0 0.21 0 0.3 0.02 0.1 0.02 0.2 0.04 0.29 0.07l0.78-0.78c-0.21-0.1-0.44-0.18-0.67-0.23-0.23-0.06-0.46-0.08-0.7-0.08-0.42 0-0.83 0.08-1.23 0.24s-0.75 0.4-1.07 0.71l-1.97 2.03c-0.32 0.32-0.56 0.68-0.71 1.08-0.16 0.4-0.24 0.8-0.24 1.22s0.08 0.82 0.24 1.22c0.15 0.41 0.39 0.76 0.71 1.08s0.67 0.56 1.07 0.71c0.41 0.16 0.81 0.24 1.23 0.24s0.83-0.08 1.23-0.24c0.4-0.15 0.76-0.39 1.07-0.71l2.01-1.96c0.49-0.48 0.79-1.03 0.89-1.66 0.11-0.63 0.04-1.24-0.21-1.84zm-2.81 1.07c0.04 0.05 0.09 0.09 0.15 0.11 0.07 0.03 0.13 0.04 0.19 0.04s0.13-0.01 0.19-0.04c0.06-0.02 0.12-0.06 0.17-0.11l6.06-6.1c0.1-0.1 0.14-0.22 0.14-0.36 0-0.13-0.04-0.25-0.14-0.34-0.1-0.1-0.22-0.16-0.36-0.16-0.13 0-0.25 0.06-0.36 0.16l-6.04 6.09c-0.11 0.11-0.16 0.23-0.16 0.36 0 0.14 0.05 0.25 0.16 0.35zm11.14-9.42c0.15 0.4 0.23 0.81 0.23 1.23s-0.08 0.82-0.23 1.22c-0.16 0.39-0.4 0.75-0.72 1.08l-2.02 2.01c-0.31 0.31-0.67 0.55-1.07 0.71s-0.81 0.24-1.22 0.24c-0.21 0-0.42-0.01-0.63-0.04s-0.41-0.09-0.61-0.18l0.8-0.79c0.07 0.01 0.14 0.01 0.22 0.01h0.22c0.3 0 0.59-0.05 0.86-0.17 0.28-0.11 0.52-0.27 0.73-0.48l2.02-2.03c0.43-0.43 0.65-0.96 0.65-1.58 0-0.63-0.22-1.16-0.65-1.6-0.22-0.2-0.47-0.37-0.74-0.48s-0.56-0.17-0.86-0.17-0.59 0.06-0.86 0.17-0.51 0.28-0.73 0.48l-2.02 1.96c-0.3 0.3-0.5 0.65-0.58 1.05-0.09 0.4-0.08 0.8 0.03 1.18l-0.78 0.78c-0.29-0.6-0.38-1.25-0.28-1.93 0.11-0.69 0.41-1.29 0.91-1.79l2.01-1.95c0.32-0.32 0.67-0.56 1.07-0.72 0.41-0.15 0.81-0.23 1.23-0.23s0.83 0.08 1.23 0.23c0.4 0.16 0.76 0.4 1.07 0.72 0.32 0.31 0.56 0.67 0.72 1.07z"/></svg><svg xmlns:xlink="http://www.w3.org/1999/xlink" xmlns:svgjs="http://svgjs.com/svgjs" id="share" height="17" width="17" version="1.1" y="17"><path id="share-SvgjsPath1010" fill="#bababa" transform="translate(-775 -361)" d="m783.13 371.52c0.08 0.37 0.08 0.72-0.02 1.07-0.09 0.35-0.28 0.67-0.56 0.95l-2.01 1.95c-0.22 0.21-0.47 0.37-0.74 0.49-0.27 0.11-0.56 0.17-0.86 0.17s-0.59-0.06-0.86-0.17c-0.27-0.12-0.51-0.28-0.73-0.49-0.44-0.43-0.66-0.97-0.66-1.59 0-0.63 0.22-1.15 0.66-1.58l1.97-2.05c0.2-0.21 0.45-0.37 0.72-0.48 0.28-0.11 0.57-0.17 0.87-0.17 0.1 0 0.21 0 0.3 0.02 0.1 0.02 0.2 0.04 0.29 0.07l0.78-0.78c-0.21-0.1-0.44-0.18-0.67-0.23-0.23-0.06-0.46-0.08-0.7-0.08-0.42 0-0.83 0.08-1.23 0.24s-0.75 0.4-1.07 0.71l-1.97 2.03c-0.32 0.32-0.56 0.68-0.71 1.08-0.16 0.4-0.24 0.8-0.24 1.22s0.08 0.82 0.24 1.22c0.15 0.41 0.39 0.76 0.71 1.08s0.67 0.56 1.07 0.71c0.41 0.16 0.81 0.24 1.23 0.24s0.83-0.08 1.23-0.24c0.4-0.15 0.76-0.39 1.07-0.71l2.01-1.96c0.49-0.48 0.79-1.03 0.89-1.66 0.11-0.63 0.04-1.24-0.21-1.84zm-2.81 1.07c0.04 0.05 0.09 0.09 0.15 0.11 0.07 0.03 0.13 0.04 0.19 0.04s0.13-0.01 0.19-0.04c0.06-0.02 0.12-0.06 0.17-0.11l6.06-6.1c0.1-0.1 0.14-0.22 0.14-0.36 0-0.13-0.04-0.25-0.14-0.34-0.1-0.1-0.22-0.16-0.36-0.16-0.13 0-0.25 0.06-0.36 0.16l-6.04 6.09c-0.11 0.11-0.16 0.23-0.16 0.36 0 0.14 0.05 0.25 0.16 0.35zm11.14-9.42c0.15 0.4 0.23 0.81 0.23 1.23s-0.08 0.82-0.23 1.22c-0.16 0.39-0.4 0.75-0.72 1.08l-2.02 2.01c-0.31 0.31-0.67 0.55-1.07 0.71s-0.81 0.24-1.22 0.24c-0.21 0-0.42-0.01-0.63-0.04s-0.41-0.09-0.61-0.18l0.8-0.79c0.07 0.01 0.14 0.01 0.22 0.01h0.22c0.3 0 0.59-0.05 0.86-0.17 0.28-0.11 0.52-0.27 0.73-0.48l2.02-2.03c0.43-0.43 0.65-0.96 0.65-1.58 0-0.63-0.22-1.16-0.65-1.6-0.22-0.2-0.47-0.37-0.74-0.48s-0.56-0.17-0.86-0.17-0.59 0.06-0.86 0.17-0.51 0.28-0.73 0.48l-2.02 1.96c-0.3 0.3-0.5 0.65-0.58 1.05-0.09 0.4-0.08 0.8 0.03 1.18l-0.78 0.78c-0.29-0.6-0.38-1.25-0.28-1.93 0.11-0.69 0.41-1.29 0.91-1.79l2.01-1.95c0.32-0.32 0.67-0.56 1.07-0.72 0.41-0.15 0.81-0.23 1.23-0.23s0.83 0.08 1.23 0.23c0.4 0.16 0.76 0.4 1.07 0.72 0.32 0.31 0.56 0.67 0.72 1.07z"/></svg></svg>
