<svg id="SvgjsSvg1017" xmlns="http://www.w3.org/2000/svg" version="1.1" xmlns:xlink="http://www.w3.org/1999/xlink" xmlns:svgjs="http://svgjs.com/svgjs" width="11" height="10"><defs id="SvgjsDefs1018"></defs><path id="SvgjsPath1019" d="M486.675 408.604L480.81100000000004 414.525C480.76800000000003 414.599 480.73100000000005 414.67999999999995 480.66700000000003 414.74399999999997C480.46900000000005 414.94399999999996 480.209 415.03 479.951 415.022C479.69100000000003 415.03 479.43100000000004 414.944 479.23400000000004 414.74399999999997C479.17 414.67999999999995 479.13200000000006 414.599 479.09100000000007 414.525L477.23100000000005 412.64799999999997C476.8550000000001 412.268 476.8550000000001 411.65299999999996 477.23100000000005 411.27399999999994C477.607 410.89599999999996 478.21500000000003 410.89599999999996 478.59100000000007 411.27399999999994L479.9510000000001 412.64799999999997L485.31700000000006 407.231C485.69200000000006 406.852 486.30000000000007 406.852 486.67500000000007 407.231C487.0520000000001 407.609 487.0520000000001 408.224 486.67500000000007 408.604Z " fill="#1bccc7" transform="matrix(1,0,0,1,-476,-406)"></path></svg>