<svg id="SvgjsSvg1011" xmlns="http://www.w3.org/2000/svg" version="1.1" xmlns:xlink="http://www.w3.org/1999/xlink" xmlns:svgjs="http://svgjs.com/svgjs" width="17" height="85"><defs id="SvgjsDefs1012"></defs><path id="SvgjsPath1013" d="M783.129 371.523C783.212 371.88800000000003 783.207 372.245 783.113 372.59400000000005C783.0200000000001 372.94300000000004 782.8320000000001 373.25800000000004 782.551 373.53900000000004L780.5350000000001 375.492C780.316 375.701 780.0720000000001 375.862 779.801 375.97700000000003C779.5300000000001 376.091 779.243 376.148 778.941 376.148C778.639 376.148 778.3530000000001 376.091 778.082 375.97700000000003C777.811 375.862 777.566 375.701 777.348 375.492C776.91 375.055 776.6909999999999 374.523 776.6909999999999 373.898C776.6909999999999 373.273 776.91 372.74800000000005 777.348 372.32000000000005L779.3159999999999 370.273C779.5249999999999 370.065 779.7669999999999 369.904 780.0429999999999 369.78900000000004C780.3189999999998 369.67500000000007 780.608 369.617 780.9099999999999 369.617C781.0139999999999 369.617 781.1159999999999 369.625 781.2149999999998 369.641C781.3139999999999 369.656 781.4099999999999 369.68 781.5039999999998 369.711L782.2849999999997 368.93C782.0659999999997 368.826 781.8419999999998 368.748 781.6129999999997 368.695C781.3839999999997 368.643 781.1499999999997 368.617 780.9099999999997 368.617C780.4929999999997 368.617 780.0839999999997 368.69800000000004 779.6839999999997 368.85900000000004C779.2819999999997 369.021 778.9259999999997 369.25800000000004 778.6129999999997 369.57000000000005L776.6449999999998 371.60200000000003C776.3219999999998 371.925 776.0819999999998 372.28400000000005 775.9259999999997 372.68C775.7699999999998 373.076 775.6909999999997 373.482 775.6909999999997 373.898C775.6909999999997 374.315 775.7699999999996 374.72400000000005 775.9259999999997 375.125C776.0819999999997 375.526 776.3219999999997 375.883 776.6449999999998 376.195C776.9569999999998 376.518 777.3139999999997 376.758 777.7149999999998 376.914C778.1159999999998 377.07 778.5249999999997 377.14799999999997 778.9409999999998 377.14799999999997C779.3579999999998 377.14799999999997 779.7669999999998 377.07 780.1679999999998 376.914C780.5689999999997 376.758 780.9259999999998 376.518 781.2379999999998 376.195L783.2539999999998 374.242C783.7429999999998 373.76300000000003 784.0399999999997 373.208 784.1449999999998 372.57800000000003C784.2489999999998 371.94800000000004 784.1759999999997 371.336 783.9259999999997 370.742ZM780.316 372.586C780.3580000000001 372.63800000000003 780.4100000000001 372.677 780.4730000000001 372.70300000000003C780.5350000000001 372.72900000000004 780.5980000000001 372.742 780.6600000000001 372.742C780.7230000000001 372.742 780.7850000000001 372.72900000000004 780.8480000000001 372.70300000000003C780.9100000000001 372.677 780.9670000000001 372.63800000000003 781.0200000000001 372.586L787.0820000000001 366.492C787.1760000000002 366.38800000000003 787.2230000000001 366.26800000000003 787.2230000000001 366.13300000000004C787.2230000000001 365.99800000000005 787.176 365.88300000000004 787.0820000000001 365.78900000000004C786.9780000000001 365.68500000000006 786.8580000000001 365.63300000000004 786.7230000000001 365.63300000000004C786.5870000000001 365.63300000000004 786.4670000000001 365.68500000000006 786.363 365.78900000000004L780.316 371.88300000000004C780.212 371.987 780.1600000000001 372.107 780.1600000000001 372.242C780.1600000000001 372.37800000000004 780.2120000000001 372.492 780.316 372.586ZM791.457 363.172C791.6129999999999 363.57300000000004 791.691 363.982 791.691 364.398C791.691 364.815 791.613 365.221 791.457 365.617C791.301 366.01300000000003 791.061 366.373 790.7379999999999 366.695L788.723 368.711C788.41 369.023 788.053 369.26 787.6519999999999 369.422C787.251 369.583 786.842 369.66400000000004 786.4259999999999 369.66400000000004C786.217 369.66400000000004 786.0089999999999 369.648 785.8009999999999 369.617C785.592 369.586 785.3889999999999 369.529 785.1909999999999 369.445L785.9879999999999 368.64799999999997C786.0609999999999 368.659 786.1339999999999 368.664 786.207 368.664C786.28 368.664 786.353 368.664 786.426 368.664C786.7280000000001 368.664 787.017 368.60699999999997 787.293 368.49199999999996C787.569 368.378 787.811 368.21599999999995 788.02 368.008L790.035 365.977C790.473 365.54999999999995 790.6909999999999 365.02299999999997 790.6909999999999 364.39799999999997C790.6909999999999 363.77299999999997 790.473 363.24199999999996 790.035 362.80499999999995C789.8159999999999 362.59599999999995 789.572 362.43499999999995 789.3009999999999 362.31999999999994C789.03 362.20599999999996 788.7429999999999 362.1479999999999 788.4409999999999 362.1479999999999C788.1389999999999 362.1479999999999 787.853 362.2059999999999 787.5819999999999 362.31999999999994C787.3109999999999 362.43499999999995 787.0659999999999 362.59599999999995 786.8479999999998 362.80499999999995L784.8319999999999 364.7579999999999C784.5299999999999 365.05999999999995 784.3339999999998 365.4119999999999 784.2459999999999 365.81299999999993C784.1569999999998 366.21399999999994 784.1699999999998 366.6069999999999 784.2849999999999 366.9919999999999L783.5039999999999 367.7729999999999C783.2119999999999 367.1689999999999 783.1179999999999 366.5229999999999 783.223 365.8359999999999C783.327 365.1479999999999 783.6289999999999 364.5549999999999 784.1289999999999 364.0549999999999L786.1449999999999 362.1019999999999C786.4569999999999 361.77899999999994 786.8139999999999 361.53899999999993 787.2149999999999 361.3829999999999C787.6159999999999 361.2269999999999 788.0249999999999 361.1479999999999 788.4409999999999 361.1479999999999C788.858 361.1479999999999 789.2669999999999 361.2269999999999 789.6679999999999 361.3829999999999C790.0689999999998 361.53899999999993 790.4259999999999 361.77899999999994 790.7379999999999 362.1019999999999C791.0609999999999 362.41399999999993 791.3009999999999 362.7709999999999 791.457 363.1719999999999Z " fill="#1bccc7" transform="matrix(1,0,0,1,-775,-361)"></path><path id="SvgjsPath1014" d="M783.129 439.523C783.212 439.88800000000003 783.207 440.245 783.113 440.59400000000005C783.0200000000001 440.94300000000004 782.8320000000001 441.25800000000004 782.551 441.53900000000004L780.5350000000001 443.492C780.316 443.701 780.0720000000001 443.862 779.801 443.97700000000003C779.5300000000001 444.091 779.243 444.148 778.941 444.148C778.639 444.148 778.3530000000001 444.091 778.082 443.97700000000003C777.811 443.862 777.566 443.701 777.348 443.492C776.91 443.055 776.6909999999999 442.523 776.6909999999999 441.898C776.6909999999999 441.273 776.91 440.74800000000005 777.348 440.32000000000005L779.3159999999999 438.273C779.5249999999999 438.065 779.7669999999999 437.904 780.0429999999999 437.78900000000004C780.3189999999998 437.67500000000007 780.608 437.617 780.9099999999999 437.617C781.0139999999999 437.617 781.1159999999999 437.625 781.2149999999998 437.641C781.3139999999999 437.656 781.4099999999999 437.68 781.5039999999998 437.711L782.2849999999997 436.93C782.0659999999997 436.826 781.8419999999998 436.748 781.6129999999997 436.695C781.3839999999997 436.643 781.1499999999997 436.617 780.9099999999997 436.617C780.4929999999997 436.617 780.0839999999997 436.69800000000004 779.6839999999997 436.85900000000004C779.2819999999997 437.021 778.9259999999997 437.25800000000004 778.6129999999997 437.57000000000005L776.6449999999998 439.60200000000003C776.3219999999998 439.925 776.0819999999998 440.28400000000005 775.9259999999997 440.68C775.7699999999998 441.076 775.6909999999997 441.482 775.6909999999997 441.898C775.6909999999997 442.315 775.7699999999996 442.72400000000005 775.9259999999997 443.125C776.0819999999997 443.526 776.3219999999997 443.883 776.6449999999998 444.195C776.9569999999998 444.518 777.3139999999997 444.758 777.7149999999998 444.914C778.1159999999998 445.07 778.5249999999997 445.14799999999997 778.9409999999998 445.14799999999997C779.3579999999998 445.14799999999997 779.7669999999998 445.07 780.1679999999998 444.914C780.5689999999997 444.758 780.9259999999998 444.518 781.2379999999998 444.195L783.2539999999998 442.242C783.7429999999998 441.76300000000003 784.0399999999997 441.209 784.1449999999998 440.57800000000003C784.2489999999998 439.94800000000004 784.1759999999997 439.336 783.9259999999997 438.742ZM780.316 440.586C780.3580000000001 440.63800000000003 780.4100000000001 440.677 780.4730000000001 440.70300000000003C780.5350000000001 440.72900000000004 780.5980000000001 440.742 780.6600000000001 440.742C780.7230000000001 440.742 780.7850000000001 440.72900000000004 780.8480000000001 440.70300000000003C780.9100000000001 440.677 780.9670000000001 440.63800000000003 781.0200000000001 440.586L787.0820000000001 434.492C787.1760000000002 434.38800000000003 787.2230000000001 434.26800000000003 787.2230000000001 434.13300000000004C787.2230000000001 433.99800000000005 787.176 433.88300000000004 787.0820000000001 433.78900000000004C786.9780000000001 433.68500000000006 786.8580000000001 433.63300000000004 786.7230000000001 433.63300000000004C786.5870000000001 433.63300000000004 786.4670000000001 433.68500000000006 786.363 433.78900000000004L780.316 439.88300000000004C780.212 439.987 780.1600000000001 440.107 780.1600000000001 440.242C780.1600000000001 440.37800000000004 780.2120000000001 440.492 780.316 440.586ZM791.457 431.172C791.6129999999999 431.57300000000004 791.691 431.982 791.691 432.398C791.691 432.815 791.613 433.221 791.457 433.617C791.301 434.01300000000003 791.061 434.373 790.7379999999999 434.695L788.723 436.711C788.41 437.023 788.053 437.26 787.6519999999999 437.422C787.251 437.583 786.842 437.66400000000004 786.4259999999999 437.66400000000004C786.217 437.66400000000004 786.0089999999999 437.648 785.8009999999999 437.617C785.592 437.586 785.3889999999999 437.529 785.1909999999999 437.445L785.9879999999999 436.64799999999997C786.0609999999999 436.659 786.1339999999999 436.664 786.207 436.664C786.28 436.664 786.353 436.664 786.426 436.664C786.7280000000001 436.664 787.017 436.60699999999997 787.293 436.49199999999996C787.569 436.378 787.811 436.21599999999995 788.02 436.008L790.035 433.977C790.473 433.54999999999995 790.6909999999999 433.02299999999997 790.6909999999999 432.39799999999997C790.6909999999999 431.77299999999997 790.473 431.24199999999996 790.035 430.80499999999995C789.8159999999999 430.59599999999995 789.572 430.43499999999995 789.3009999999999 430.31999999999994C789.03 430.20599999999996 788.7429999999999 430.1479999999999 788.4409999999999 430.1479999999999C788.1389999999999 430.1479999999999 787.853 430.2059999999999 787.5819999999999 430.31999999999994C787.3109999999999 430.43499999999995 787.0659999999999 430.59599999999995 786.8479999999998 430.80499999999995L784.8319999999999 432.7579999999999C784.5299999999999 433.05999999999995 784.3339999999998 433.4119999999999 784.2459999999999 433.81299999999993C784.1569999999998 434.21399999999994 784.1699999999998 434.6069999999999 784.2849999999999 434.9919999999999L783.5039999999999 435.7729999999999C783.2119999999999 435.1689999999999 783.1179999999999 434.5229999999999 783.223 433.8359999999999C783.327 433.1479999999999 783.6289999999999 432.5549999999999 784.1289999999999 432.0549999999999L786.1449999999999 430.1019999999999C786.4569999999999 429.77899999999994 786.8139999999999 429.53899999999993 787.2149999999999 429.3829999999999C787.6159999999999 429.2269999999999 788.0249999999999 429.1479999999999 788.4409999999999 429.1479999999999C788.858 429.1479999999999 789.2669999999999 429.2269999999999 789.6679999999999 429.3829999999999C790.0689999999998 429.53899999999993 790.4259999999999 429.77899999999994 790.7379999999999 430.1019999999999C791.0609999999999 430.41399999999993 791.3009999999999 430.7709999999999 791.457 431.1719999999999Z " fill="#bababa" transform="matrix(1,0,0,1,-775,-361)"></path></svg>