<svg id="Layer_1" data-name="Layer 1" xmlns="http://www.w3.org/2000/svg" viewBox="0 0 16 16"><defs><style>.cls-1{fill:#1bccc7;}</style></defs><title>Artboard 2 copy</title><path class="cls-1" d="M11.11.63a7.83,7.83,0,0,1,4.26,4.26,8,8,0,0,1,0,6.22,7.83,7.83,0,0,1-4.26,4.26A8,8,0,0,1,4,14.93,8,8,0,0,1,0,8,8,8,0,0,1,4,1.07,8,8,0,0,1,11.11.63Zm-.39,13.83A7,7,0,0,0,13,13a7.12,7.12,0,0,0,1.49-2.24,6.94,6.94,0,0,0,0-5.44,6.88,6.88,0,0,0-3.73-3.73,6.94,6.94,0,0,0-5.44,0A6.88,6.88,0,0,0,1.55,5.28,6.84,6.84,0,0,0,1,8a7,7,0,0,0,.35,2.21,6.57,6.57,0,0,0,1,1.93,7.81,7.81,0,0,0,1.51,1.52,6.48,6.48,0,0,0,1.93,1A7,7,0,0,0,8,15,6.84,6.84,0,0,0,10.72,14.46ZM9.85,4.11a2.2,2.2,0,0,1,.66,1.7,2.63,2.63,0,0,1-.42,1.45q-.22.31-.51.65T9,8.59a2.3,2.3,0,0,0-.27.32.86.86,0,0,0-.13.27,3.84,3.84,0,0,0-.06.81H7.28a3.42,3.42,0,0,1,.15-1.22,3.12,3.12,0,0,1,.77-.91q.59-.72.86-1.09a1.66,1.66,0,0,0,.19-.43,1.93,1.93,0,0,0,.06-.51,1.34,1.34,0,0,0-.34-1,1.19,1.19,0,0,0-.41-.27A1.58,1.58,0,0,0,8,4.5a1.63,1.63,0,0,0-.52.08A1.31,1.31,0,0,0,7,4.81a.91.91,0,0,0-.29.48,2.34,2.34,0,0,0-.1.67H5.5l0,0a2.8,2.8,0,0,1,.17-1,1.86,1.86,0,0,1,.52-.8,2.66,2.66,0,0,1,.3-.2l.34-.16.36-.12.39-.07L8,3.5A2.66,2.66,0,0,1,9.85,4.11ZM7.27,11.23H8.52V12.5H7.27Z"/></svg>