<svg id="Layer_1" data-name="Layer 1" xmlns="http://www.w3.org/2000/svg" viewBox="0 0 50 60"><defs><style>.cls-1{isolation:isolate;}.cls-2{fill:#ffb526;}</style></defs><title>Artboard 1 copy 14</title><g id="pptx-2"><g class="cls-1"><path class="cls-2" d="M17.88,38h5.88a.76.76,0,0,1,.65.24.73.73,0,0,1,0,.67l-3.24,9.44H19.89l2.92-8.46a5.81,5.81,0,0,1,.32-.77H17.94Z"/><path class="cls-2" d="M32,47.35v1H25.75v-1l4.72-5.22H25.8V41.08h6.12v1.05l-4.74,5.22Z"/></g></g><path class="cls-2" d="M33,0H0V60H50V17ZM48.59,17H33V1.41ZM49,59H1V1H32V18H49Z"/></svg>