<svg id="Layer_1" data-name="Layer 1" xmlns="http://www.w3.org/2000/svg" viewBox="0 0 50 60"><defs><style>.cls-1{isolation:isolate;}.cls-2{fill:#f59c3d;}</style></defs><title>Artboard 1 copy 19</title><g id="pptx-2"><g class="cls-1"><path class="cls-2" d="M20.21,42.17l-.12-.94a22.25,22.25,0,0,1,3.54-.33,2.87,2.87,0,0,1,1.9.53,2.28,2.28,0,0,1,.62,1.81v5.14h-1L25,47.18a5.24,5.24,0,0,1-1.32.93,3.71,3.71,0,0,1-1.71.4A2.32,2.32,0,0,1,20.36,48a1.91,1.91,0,0,1-.6-1.51v-.8a1.68,1.68,0,0,1,.54-1.33,2.2,2.2,0,0,1,1.5-.47h3.06v-.64a1.26,1.26,0,0,0-.32-1A1.79,1.79,0,0,0,23.36,42Q22.28,42,20.21,42.17Zm.86,3.69v.46a1.11,1.11,0,0,0,.27.83,1.22,1.22,0,0,0,.87.26,3.38,3.38,0,0,0,1.3-.27,4.37,4.37,0,0,0,1.33-.82V44.86H22a1,1,0,0,0-.73.27A1.09,1.09,0,0,0,21.07,45.86Z"/><path class="cls-2" d="M28.84,38h.6a.35.35,0,0,1,.39.39v.85a.35.35,0,0,1-.39.39h-.6a.34.34,0,0,1-.39-.39v-.85A.35.35,0,0,1,28.84,38Zm.94,10.41H28.51v-7.3h1.27Z"/></g></g><path class="cls-2" d="M33,0H0V60H50V17ZM48.59,17H33V1.41ZM49,59H1V1H32V18H49Z"/></svg>