<svg id="Layer_1" data-name="Layer 1" xmlns="http://www.w3.org/2000/svg" viewBox="0 0 50 60"><defs><style>.cls-1{isolation:isolate;}.cls-2{fill:#ff7e7e;}</style></defs><title>Artboard 1 copy 22</title><g id="pptx-2"><g class="cls-1"><path class="cls-2" d="M16.22,42.17l-.12-.94a22.31,22.31,0,0,1,3.54-.33,2.86,2.86,0,0,1,1.9.53,2.28,2.28,0,0,1,.62,1.81v5.15h-1L21,47.18a5.22,5.22,0,0,1-1.32.93,3.7,3.7,0,0,1-1.71.4A2.32,2.32,0,0,1,16.36,48a1.92,1.92,0,0,1-.6-1.51v-.8a1.68,1.68,0,0,1,.54-1.33,2.19,2.19,0,0,1,1.5-.47h3.06v-.65a1.26,1.26,0,0,0-.32-1A1.8,1.8,0,0,0,19.37,42Q18.28,42,16.22,42.17Zm.86,3.69v.46a1.11,1.11,0,0,0,.27.83,1.22,1.22,0,0,0,.87.26,3.4,3.4,0,0,0,1.3-.27,4.36,4.36,0,0,0,1.33-.83V44.86H18a1,1,0,0,0-.73.27A1.09,1.09,0,0,0,17.08,45.86Z"/><path class="cls-2" d="M31,41.08l-2.68,7a.45.45,0,0,1-.45.31H26.68a.45.45,0,0,1-.45-.31l-2.68-7h1.37l1.81,5.12q.15.42.44,1.27h.2l.45-1.27,1.81-5.12Z"/><path class="cls-2" d="M32.83,38h.6a.35.35,0,0,1,.39.39v.85a.35.35,0,0,1-.39.39h-.6a.35.35,0,0,1-.39-.39v-.85A.35.35,0,0,1,32.83,38Zm.94,10.41H32.5V41.08h1.27Z"/></g></g><path class="cls-2" d="M33,0H0V60H50V17ZM48.59,17H33V1.41ZM49,59H1V1H32V18H49Z"/></svg>