<svg id="Layer_1" data-name="Layer 1" xmlns="http://www.w3.org/2000/svg" viewBox="0 0 50 60"><defs><style>.cls-1{isolation:isolate;}.cls-2{fill:#306ead;}</style></defs><title>Artboard 1 copy 3</title><g id="pptx-2"><g class="cls-1"><path class="cls-2" d="M20.16,37.88v10.5h-1l-.12-1a4.39,4.39,0,0,1-2.91,1.23,2.16,2.16,0,0,1-2-1,5.47,5.47,0,0,1-.61-2.9,5,5,0,0,1,.66-2.95,2.5,2.5,0,0,1,2.11-.86,5.16,5.16,0,0,1,2.61.67q-.06-.66-.06-1.44V37.88Zm-1.28,8.56v-4a9,9,0,0,0-2.25-.4,1.57,1.57,0,0,0-1.37.55,4,4,0,0,0-.39,2.13,4.3,4.3,0,0,0,.38,2.17,1.44,1.44,0,0,0,1.3.59,2.43,2.43,0,0,0,1-.22A9.29,9.29,0,0,0,18.88,46.45Z"/><path class="cls-2" d="M25.63,40.9a3.46,3.46,0,0,1,2.68.87,4.46,4.46,0,0,1,.78,3,4.46,4.46,0,0,1-.78,3,3.46,3.46,0,0,1-2.68.87A3.46,3.46,0,0,1,23,47.71a4.42,4.42,0,0,1-.78-3,4.43,4.43,0,0,1,.78-3A3.46,3.46,0,0,1,25.63,40.9Zm1.67,1.66A2,2,0,0,0,25.63,42a2,2,0,0,0-1.66.58,3.75,3.75,0,0,0-.45,2.18A3.74,3.74,0,0,0,24,46.91a2,2,0,0,0,1.66.59,2,2,0,0,0,1.67-.59,3.69,3.69,0,0,0,.46-2.17A3.7,3.7,0,0,0,27.3,42.56Z"/><path class="cls-2" d="M36.6,47.33l.14.85a7.71,7.71,0,0,1-2.52.38,3.53,3.53,0,0,1-2.69-.86,4.39,4.39,0,0,1-.79-3,4.36,4.36,0,0,1,.79-3,3.57,3.57,0,0,1,2.71-.85,6.86,6.86,0,0,1,2.37.34l-.17.83q-1-.09-2-.09a2.37,2.37,0,0,0-1.84.58,3.36,3.36,0,0,0-.51,2.16,3.4,3.4,0,0,0,.51,2.18,2.37,2.37,0,0,0,1.84.58A13.87,13.87,0,0,0,36.6,47.33Z"/></g></g><path class="cls-2" d="M33,0H0V60H50V17ZM48.59,17H33V1.41ZM49,59H1V1H32V18H49Z"/></svg>