<svg id="Layer_1" data-name="Layer 1" xmlns="http://www.w3.org/2000/svg" viewBox="0 0 50 60"><defs><style>.cls-1{isolation:isolate;}.cls-2{fill:#51bf87;}</style></defs><title>Artboard 1 copy 9</title><g id="pptx-2"><g class="cls-1"><path class="cls-2" d="M24.21,41.78l-1.09.09a2.58,2.58,0,0,1,.3,1.35A2.11,2.11,0,0,1,22.72,45a4.1,4.1,0,0,1-2.44.55,7.1,7.1,0,0,1-1.52-.15.78.78,0,0,0-.17.76.75.75,0,0,0,.68.5l2.74.43a2.27,2.27,0,0,1,1.44.64,2.13,2.13,0,0,1,.42,1.42,2,2,0,0,1-.76,1.77,5.38,5.38,0,0,1-2.74.49,5.59,5.59,0,0,1-2.77-.49,1.88,1.88,0,0,1-.78-1.73,1.78,1.78,0,0,1,.27-1,2.57,2.57,0,0,1,.92-.74,1.28,1.28,0,0,1-.51-1.16,1.46,1.46,0,0,1,.57-1.12,2,2,0,0,1-.93-1.9,2.13,2.13,0,0,1,.7-1.8,4.15,4.15,0,0,1,2.45-.54,6.67,6.67,0,0,1,1.7.18h2.29ZM21.34,48l-2.5-.34a1.71,1.71,0,0,0-.77,1.39,1,1,0,0,0,.45,1,4.53,4.53,0,0,0,1.83.24,4.36,4.36,0,0,0,1.8-.25,1,1,0,0,0,.46-1,.93.93,0,0,0-.23-.73A2.36,2.36,0,0,0,21.34,48Zm-2.59-3.77a2.77,2.77,0,0,0,1.52.31,2.77,2.77,0,0,0,1.52-.31,1.47,1.47,0,0,0,0-2.09,2.77,2.77,0,0,0-1.53-.31,2.78,2.78,0,0,0-1.52.31,1.46,1.46,0,0,0,0,2.09Z"/><path class="cls-2" d="M26.18,38h.6a.35.35,0,0,1,.39.39v.85a.35.35,0,0,1-.39.39h-.6a.35.35,0,0,1-.39-.39v-.85A.35.35,0,0,1,26.18,38Zm.93,10.41H25.85v-7.3h1.27Z"/><path class="cls-2" d="M34.21,38.68H32.7a1.48,1.48,0,0,0-1,.28,1.27,1.27,0,0,0-.29,1v1.17h2.35v1H31.39v6.3H30.11v-6.3H28.78v-.93l1.33-.06V39.77a2.29,2.29,0,0,1,.5-1.61,2.15,2.15,0,0,1,1.64-.54,16.6,16.6,0,0,1,2.07.1Z"/></g></g><path class="cls-2" d="M33,0H0V60H50V17ZM48.59,17H33V1.41ZM49,59H1V1H32V18H49Z"/></svg>