<svg id="Layer_1" data-name="Layer 1" xmlns="http://www.w3.org/2000/svg" viewBox="0 0 50 60"><defs><style>.cls-1{isolation:isolate;}.cls-2{fill:#51bf87;}</style></defs><title>Artboard 1 copy 10</title><g id="pptx-2"><g class="cls-1"><path class="cls-2" d="M17.07,41.08v7.49a3.56,3.56,0,0,1-.38,1.62,3.49,3.49,0,0,1-1,1.25l-.71-.55a3.57,3.57,0,0,0,.84-2.31V41.08ZM16.13,38h.6a.34.34,0,0,1,.38.39v.85a.34.34,0,0,1-.38.39h-.6a.35.35,0,0,1-.39-.39v-.85A.35.35,0,0,1,16.13,38Z"/><path class="cls-2" d="M20.54,41.08l.11,1.17a4.2,4.2,0,0,1,1.42-1,4.07,4.07,0,0,1,1.63-.36,2.09,2.09,0,0,1,1.92,1,5.57,5.57,0,0,1,.6,2.91,4.92,4.92,0,0,1-.66,2.93,2.49,2.49,0,0,1-2.11.86,5.24,5.24,0,0,1-2.71-.75q0,.51,0,1.47V51.4H19.48V41.08Zm.23,2.06V47a9.16,9.16,0,0,0,2.35.45,1.58,1.58,0,0,0,1.39-.55,4,4,0,0,0,.39-2.13,4.46,4.46,0,0,0-.37-2.14A1.35,1.35,0,0,0,23.27,42a2.68,2.68,0,0,0-1.14.26A8,8,0,0,0,20.76,43.13Z"/><path class="cls-2" d="M35.06,41.78,34,41.87a2.58,2.58,0,0,1,.3,1.35A2.11,2.11,0,0,1,33.57,45a4.11,4.11,0,0,1-2.44.55,7.07,7.07,0,0,1-1.52-.15.78.78,0,0,0-.17.76.75.75,0,0,0,.68.5l2.74.44a2.26,2.26,0,0,1,1.44.64,2.13,2.13,0,0,1,.42,1.42A2,2,0,0,1,34,50.92a5.38,5.38,0,0,1-2.74.49,5.59,5.59,0,0,1-2.77-.49,1.88,1.88,0,0,1-.78-1.73,1.78,1.78,0,0,1,.27-1,2.58,2.58,0,0,1,.92-.73,1.28,1.28,0,0,1-.51-1.16,1.46,1.46,0,0,1,.57-1.12,2,2,0,0,1-.93-1.9,2.13,2.13,0,0,1,.7-1.8,4.14,4.14,0,0,1,2.45-.54,6.69,6.69,0,0,1,1.7.18h2.29ZM32.19,48l-2.5-.34a1.72,1.72,0,0,0-.77,1.4,1,1,0,0,0,.45,1,4.52,4.52,0,0,0,1.83.24,4.34,4.34,0,0,0,1.8-.25,1,1,0,0,0,.46-1,.93.93,0,0,0-.23-.73A2.37,2.37,0,0,0,32.19,48ZM29.6,44.26a2.77,2.77,0,0,0,1.52.31,2.77,2.77,0,0,0,1.52-.31,1.18,1.18,0,0,0,.44-1,1.2,1.2,0,0,0-.43-1,2.77,2.77,0,0,0-1.53-.31,2.77,2.77,0,0,0-1.52.31,1.46,1.46,0,0,0,0,2.08Z"/></g></g><path class="cls-2" d="M33,0H0V60H50V17ZM48.59,17H33V1.41ZM49,59H1V1H32V18H49Z"/></svg>