<svg id="Layer_1" data-name="Layer 1" xmlns="http://www.w3.org/2000/svg" viewBox="0 0 50 60"><defs><style>.cls-1{isolation:isolate;}.cls-2{fill:#2695e8;}</style></defs><title>Artboard 1 copy 7</title><g id="pptx-2"><g class="cls-1"><path class="cls-2" d="M16.81,44.72h-1a10.85,10.85,0,0,1,.08,1.17v2.49H14.61V37.88h1.3v4.67a8.77,8.77,0,0,1-.08,1.25h1l2.32-2.71h1.49L18.3,43.76a1.85,1.85,0,0,1-.51.5v0a2,2,0,0,1,.51.59l2.55,3.51H19.36Z"/><path class="cls-2" d="M26.46,45.35H23A2.46,2.46,0,0,0,23.66,47a2.64,2.64,0,0,0,1.7.43,18.52,18.52,0,0,0,2.55-.18l.14.86a7.8,7.8,0,0,1-2.85.4,3.54,3.54,0,0,1-2.71-.88,4.37,4.37,0,0,1-.81-3,4.36,4.36,0,0,1,.78-3,3.4,3.4,0,0,1,2.59-.85,3.89,3.89,0,0,1,2.4.59,2.14,2.14,0,0,1,.75,1.79Q28.24,45.35,26.46,45.35Zm-3.44-1h3.11q.8,0,.8-1.08a1.2,1.2,0,0,0-.42-1,2.42,2.42,0,0,0-1.39-.3,2.11,2.11,0,0,0-1.61.5A3,3,0,0,0,23,44.36Z"/><path class="cls-2" d="M36.61,41.08l-2.94,7.71q-1,2.58-3.21,2.69l-.12-.84a3.36,3.36,0,0,0,1.35-.74,3.52,3.52,0,0,0,.79-1.19l.12-.31h-.29a.42.42,0,0,1-.45-.33l-2.67-7h1.37l1.95,5.45q.21.62.27.88H33c.08-.2.19-.5.32-.88l1.92-5.45Z"/></g></g><path class="cls-2" d="M33,0H0V60H50V17ZM48.59,17H33V1.41ZM49,59H1V1H32V18H49Z"/></svg>