<svg id="Layer_1" data-name="Layer 1" xmlns="http://www.w3.org/2000/svg" viewBox="0 0 50 60"><defs><style>.cls-1{isolation:isolate;}.cls-2{fill:#708a9f;}</style></defs><title>Artboard 1 copy 12</title><g id="pptx-2"><g class="cls-1"><path class="cls-2" d="M16.74,37.88v8.49a.92.92,0,0,0,.24.73,1,1,0,0,0,.75.25h.71l.15,1a3.34,3.34,0,0,1-1.34.19A1.76,1.76,0,0,1,15.94,48a1.87,1.87,0,0,1-.48-1.37V37.88Z"/><path class="cls-2" d="M23,40.9a3.46,3.46,0,0,1,2.68.87,4.46,4.46,0,0,1,.78,3,4.46,4.46,0,0,1-.78,3,3.46,3.46,0,0,1-2.68.87,3.46,3.46,0,0,1-2.67-.87,4.42,4.42,0,0,1-.78-3,4.42,4.42,0,0,1,.78-3A3.46,3.46,0,0,1,23,40.9Zm1.67,1.67A2,2,0,0,0,23,42a2,2,0,0,0-1.66.58,3.74,3.74,0,0,0-.45,2.17,3.74,3.74,0,0,0,.45,2.17A2,2,0,0,0,23,47.5a2,2,0,0,0,1.67-.59,3.69,3.69,0,0,0,.46-2.17A3.69,3.69,0,0,0,24.7,42.56Z"/><path class="cls-2" d="M35.32,41.78l-1.09.09a2.58,2.58,0,0,1,.3,1.35A2.11,2.11,0,0,1,33.83,45a4.11,4.11,0,0,1-2.44.55,7.07,7.07,0,0,1-1.52-.15.78.78,0,0,0-.17.76.75.75,0,0,0,.68.5l2.74.44a2.26,2.26,0,0,1,1.44.64A2.13,2.13,0,0,1,35,49.15a2,2,0,0,1-.76,1.77,5.38,5.38,0,0,1-2.74.49,5.59,5.59,0,0,1-2.77-.49,1.88,1.88,0,0,1-.78-1.73,1.78,1.78,0,0,1,.27-1,2.58,2.58,0,0,1,.92-.73,1.28,1.28,0,0,1-.51-1.16,1.46,1.46,0,0,1,.57-1.12,2,2,0,0,1-.93-1.9,2.13,2.13,0,0,1,.7-1.8,4.14,4.14,0,0,1,2.45-.54,6.69,6.69,0,0,1,1.7.18H35.4ZM32.46,48,30,47.69a1.72,1.72,0,0,0-.77,1.4,1,1,0,0,0,.45,1,4.52,4.52,0,0,0,1.83.24,4.34,4.34,0,0,0,1.8-.25,1,1,0,0,0,.46-1,.93.93,0,0,0-.23-.73A2.37,2.37,0,0,0,32.46,48Zm-2.59-3.77a2.77,2.77,0,0,0,1.52.31,2.77,2.77,0,0,0,1.52-.31,1.18,1.18,0,0,0,.44-1,1.2,1.2,0,0,0-.43-1,2.77,2.77,0,0,0-1.53-.31,2.77,2.77,0,0,0-1.52.31,1.46,1.46,0,0,0,0,2.08Z"/></g></g><path class="cls-2" d="M33,0H0V60H50V17ZM48.59,17H33V1.41ZM49,59H1V1H32V18H49Z"/></svg>