<svg id="Layer_1" data-name="Layer 1" xmlns="http://www.w3.org/2000/svg" viewBox="0 0 50 60"><defs><style>.cls-1{isolation:isolate;}.cls-2{fill:#00acde;}</style></defs><title>Artboard 1 copy 23</title><g id="pptx-2"><g class="cls-1"><path class="cls-2" d="M12.56,41.08l.08,1.15a4.69,4.69,0,0,1,3-1.33,1.67,1.67,0,0,1,1.85,1.29,4.56,4.56,0,0,1,3-1.29,2,2,0,0,1,1.46.51,2,2,0,0,1,.5,1.5v5.47H21.14V43.27a1.55,1.55,0,0,0-.28-1A1.09,1.09,0,0,0,20,42a2.3,2.3,0,0,0-1,.24,10.5,10.5,0,0,0-1.39.9v5.27H16.34V43.27a1.44,1.44,0,0,0-.28-1,1.14,1.14,0,0,0-.87-.3,2.3,2.3,0,0,0-1,.24,11,11,0,0,0-1.4.89v5.28H11.5v-7.3Z"/><path class="cls-2" d="M27.82,40.9a3.46,3.46,0,0,1,2.68.87,4.46,4.46,0,0,1,.78,3,4.46,4.46,0,0,1-.78,3,3.46,3.46,0,0,1-2.68.87,3.46,3.46,0,0,1-2.67-.87,4.42,4.42,0,0,1-.78-3,4.43,4.43,0,0,1,.78-3A3.46,3.46,0,0,1,27.82,40.9Zm1.67,1.66A2,2,0,0,0,27.82,42a2,2,0,0,0-1.66.58,3.75,3.75,0,0,0-.45,2.18,3.74,3.74,0,0,0,.45,2.17,2,2,0,0,0,1.66.59,2,2,0,0,0,1.67-.59,3.69,3.69,0,0,0,.46-2.17A3.7,3.7,0,0,0,29.49,42.56Z"/><path class="cls-2" d="M39.72,41.08l-2.68,7a.45.45,0,0,1-.45.31H35.42a.45.45,0,0,1-.45-.31l-2.68-7h1.37l1.81,5.12c.1.28.25.71.44,1.27h.2l.45-1.27,1.81-5.12Z"/></g></g><path class="cls-2" d="M33,0H0V60H50V17ZM48.59,17H33V1.41ZM49,59H1V1H32V18H49Z"/></svg>