<svg id="Layer_1" data-name="Layer 1" xmlns="http://www.w3.org/2000/svg" viewBox="0 0 50 60"><defs><style>.cls-1{isolation:isolate;}.cls-2{fill:#ac53d2;}</style></defs><title>Artboard 1 copy 20</title><g id="pptx-2"><g class="cls-1"><path class="cls-2" d="M12.06,41.08l.08,1.16a4.69,4.69,0,0,1,3-1.33A1.67,1.67,0,0,1,17,42.19a4.56,4.56,0,0,1,3-1.29,2,2,0,0,1,1.46.51,2,2,0,0,1,.51,1.5v5.48H20.64V43.27a1.55,1.55,0,0,0-.28-1A1.09,1.09,0,0,0,19.5,42a2.29,2.29,0,0,0-1,.24,10.46,10.46,0,0,0-1.4.9v5.27H15.85V43.27a1.43,1.43,0,0,0-.28-1,1.13,1.13,0,0,0-.87-.3,2.29,2.29,0,0,0-1,.24,11,11,0,0,0-1.39.89v5.28H11V41.08Z"/><path class="cls-2" d="M25.27,41.08l.11,1.17a4.2,4.2,0,0,1,1.42-1,4.06,4.06,0,0,1,1.63-.36,2.1,2.1,0,0,1,1.92,1,5.58,5.58,0,0,1,.6,2.91,4.92,4.92,0,0,1-.66,2.93,2.5,2.5,0,0,1-2.11.86,5.24,5.24,0,0,1-2.71-.75q0,.51,0,1.47V51.4H24.22V41.08Zm.23,2.06V47a9.16,9.16,0,0,0,2.35.45,1.58,1.58,0,0,0,1.39-.55,4,4,0,0,0,.39-2.13,4.46,4.46,0,0,0-.37-2.14A1.35,1.35,0,0,0,28,42a2.69,2.69,0,0,0-1.14.26A8,8,0,0,0,25.5,43.13Z"/><path class="cls-2" d="M32.86,39.13l-.11-1a16.92,16.92,0,0,1,2.93-.27,4.4,4.4,0,0,1,2.48.52,2.16,2.16,0,0,1,.73,1.88q0,2.31-1.52,2.61v.06a1.9,1.9,0,0,1,1.37.81,3.51,3.51,0,0,1,.44,1.79,3,3,0,0,1-.73,2.34,3.64,3.64,0,0,1-2.57.73,23.87,23.87,0,0,1-3.3-.27l.09-1.06q1.71.15,2.88.15a2.78,2.78,0,0,0,1.79-.45,2,2,0,0,0,.53-1.58,2.08,2.08,0,0,0-.43-1.42,2.16,2.16,0,0,0-1.64-.48H33.87v-1H35.8a1.76,1.76,0,0,0,1.47-.51,2.34,2.34,0,0,0,.35-1.38,1.44,1.44,0,0,0-.45-1.24A3.29,3.29,0,0,0,35.5,39Q34.24,39,32.86,39.13Z"/></g></g><path class="cls-2" d="M33,0H0V60H50V17ZM48.59,17H33V1.41ZM49,59H1V1H32V18H49Z"/></svg>