<svg id="Layer_1" data-name="Layer 1" xmlns="http://www.w3.org/2000/svg" viewBox="0 0 50 60"><defs><style>.cls-1{isolation:isolate;}.cls-2{fill:#db4564;}</style></defs><title>Artboard 1 copy 21</title><g id="pptx-2"><g class="cls-1"><path class="cls-2" d="M11.62,41.08l.08,1.15a4.69,4.69,0,0,1,3-1.33,1.67,1.67,0,0,1,1.85,1.29,4.56,4.56,0,0,1,3-1.29,2,2,0,0,1,1.46.51,2,2,0,0,1,.5,1.5v5.47H20.2V43.27a1.55,1.55,0,0,0-.28-1,1.09,1.09,0,0,0-.87-.31,2.3,2.3,0,0,0-1,.24,10.5,10.5,0,0,0-1.39.9v5.27H15.4V43.27a1.44,1.44,0,0,0-.28-1,1.14,1.14,0,0,0-.87-.3,2.3,2.3,0,0,0-1,.24,11,11,0,0,0-1.4.89v5.28H10.56v-7.3Z"/><path class="cls-2" d="M24.83,41.08l.11,1.17a4.2,4.2,0,0,1,1.42-1A4.07,4.07,0,0,1,28,40.9a2.09,2.09,0,0,1,1.92,1,5.57,5.57,0,0,1,.6,2.91,4.92,4.92,0,0,1-.66,2.93,2.49,2.49,0,0,1-2.11.86A5.24,5.24,0,0,1,25,47.81q0,.51,0,1.47V51.4H23.77V41.08Zm.23,2.05V47a9.17,9.17,0,0,0,2.35.45,1.59,1.59,0,0,0,1.39-.55,4,4,0,0,0,.39-2.13,4.46,4.46,0,0,0-.37-2.14A1.35,1.35,0,0,0,27.56,42a2.68,2.68,0,0,0-1.14.26A8,8,0,0,0,25.05,43.13Z"/><path class="cls-2" d="M40,45.71l-1.34.13v2.54H37.36V45.85H33a1,1,0,0,1-.94-.51,1.13,1.13,0,0,1-.05-1.1L35,38h1.31l-2.91,6.12a.47.47,0,0,0,0,.46.44.44,0,0,0,.38.16h3.57v-3L37.58,40h1v4.75H40Z"/></g></g><path class="cls-2" d="M33,0H0V60H50V17ZM48.59,17H33V1.41ZM49,59H1V1H32V18H49Z"/></svg>