<svg id="Layer_1" data-name="Layer 1" xmlns="http://www.w3.org/2000/svg" viewBox="0 0 50 60"><defs><style>.cls-1{isolation:isolate;}.cls-2{fill:#db5565;}</style></defs><title>Artboard 1 copy 6</title><g id="pptx-2"><g class="cls-1"><path class="cls-2" d="M15.82,41.08l.11,1.17a4.2,4.2,0,0,1,1.42-1A4.06,4.06,0,0,1,19,40.9a2.1,2.1,0,0,1,1.92,1,5.58,5.58,0,0,1,.6,2.91,4.92,4.92,0,0,1-.66,2.93,2.5,2.5,0,0,1-2.11.86A5.24,5.24,0,0,1,16,47.81q0,.51,0,1.47V51.4H14.76V41.08ZM16,43.13V47a9.16,9.16,0,0,0,2.35.45,1.58,1.58,0,0,0,1.39-.55,4,4,0,0,0,.39-2.13,4.46,4.46,0,0,0-.37-2.14A1.35,1.35,0,0,0,18.55,42a2.69,2.69,0,0,0-1.14.26A8,8,0,0,0,16,43.13Z"/><path class="cls-2" d="M29.78,37.88v10.5h-1l-.12-1a4.38,4.38,0,0,1-2.91,1.23,2.16,2.16,0,0,1-2-1,5.47,5.47,0,0,1-.61-2.9,5,5,0,0,1,.66-2.95A2.5,2.5,0,0,1,26,40.9a5.15,5.15,0,0,1,2.61.67q-.06-.66-.06-1.44V37.88ZM28.5,46.45v-4a9,9,0,0,0-2.25-.4,1.57,1.57,0,0,0-1.37.56,4,4,0,0,0-.39,2.13,4.29,4.29,0,0,0,.38,2.17,1.43,1.43,0,0,0,1.3.59,2.44,2.44,0,0,0,1-.22A9.22,9.22,0,0,0,28.5,46.45Z"/><path class="cls-2" d="M36.82,38.68H35.31a1.47,1.47,0,0,0-1,.28,1.27,1.27,0,0,0-.29,1v1.17h2.35v1H34v6.3H32.72v-6.3H31.39v-.93l1.33-.06V39.77a2.29,2.29,0,0,1,.5-1.6,2.15,2.15,0,0,1,1.64-.54,16.47,16.47,0,0,1,2.07.1Z"/></g></g><path class="cls-2" d="M33,0H0V60H50V17ZM48.59,17H33V1.41ZM49,59H1V1H32V18H49Z"/></svg>