<svg id="Layer_1" data-name="Layer 1" xmlns="http://www.w3.org/2000/svg" viewBox="0 0 50 60"><defs><style>.cls-1{isolation:isolate;}.cls-2{fill:#51bf87;}</style></defs><title>Artboard 1 copy 8</title><g id="pptx-2"><g class="cls-1"><path class="cls-2" d="M14.27,41.08l.11,1.17a4.2,4.2,0,0,1,1.42-1,4.07,4.07,0,0,1,1.63-.36,2.09,2.09,0,0,1,1.92,1,5.57,5.57,0,0,1,.6,2.91,4.92,4.92,0,0,1-.66,2.93,2.49,2.49,0,0,1-2.11.86,5.24,5.24,0,0,1-2.71-.75q0,.51,0,1.47V51.4H13.22V41.08Zm.23,2.06V47a9.16,9.16,0,0,0,2.35.45,1.58,1.58,0,0,0,1.39-.55,4,4,0,0,0,.39-2.13,4.46,4.46,0,0,0-.37-2.14A1.35,1.35,0,0,0,17,42a2.68,2.68,0,0,0-1.14.26A8,8,0,0,0,14.5,43.13Z"/><path class="cls-2" d="M23,41.08l.09,1.16a5.63,5.63,0,0,1,3.29-1.33,1.77,1.77,0,0,1,2,2v5.48H27.13V43.27a1.58,1.58,0,0,0-.24-1,1,1,0,0,0-.81-.28,3,3,0,0,0-1.21.27,15,15,0,0,0-1.62.88v5.25H22V41.08Z"/><path class="cls-2" d="M37.55,41.78l-1.08.09a2.59,2.59,0,0,1,.3,1.35A2.11,2.11,0,0,1,36.06,45a4.11,4.11,0,0,1-2.44.55,7.08,7.08,0,0,1-1.52-.15.78.78,0,0,0-.17.76.74.74,0,0,0,.68.5l2.75.44a2.27,2.27,0,0,1,1.44.64,2.13,2.13,0,0,1,.41,1.42,2,2,0,0,1-.76,1.77,5.38,5.38,0,0,1-2.74.49,5.59,5.59,0,0,1-2.77-.49,1.88,1.88,0,0,1-.78-1.73,1.78,1.78,0,0,1,.27-1,2.56,2.56,0,0,1,.92-.73,1.28,1.28,0,0,1-.51-1.16,1.46,1.46,0,0,1,.57-1.12,2,2,0,0,1-.94-1.9,2.13,2.13,0,0,1,.7-1.8,4.14,4.14,0,0,1,2.45-.54,6.69,6.69,0,0,1,1.7.18h2.29ZM34.69,48l-2.5-.34a1.72,1.72,0,0,0-.77,1.4,1,1,0,0,0,.45,1,4.51,4.51,0,0,0,1.82.24,4.35,4.35,0,0,0,1.8-.25,1,1,0,0,0,.46-1,.92.92,0,0,0-.23-.73A2.36,2.36,0,0,0,34.69,48Zm-2.59-3.77a2.77,2.77,0,0,0,1.52.31,2.77,2.77,0,0,0,1.52-.31,1.47,1.47,0,0,0,0-2.08,2.77,2.77,0,0,0-1.53-.31,2.78,2.78,0,0,0-1.52.31,1.46,1.46,0,0,0,0,2.08Z"/></g></g><path class="cls-2" d="M33,0H0V60H50V17ZM48.59,17H33V1.41ZM49,59H1V1H32V18H49Z"/></svg>