<svg id="Layer_1" data-name="Layer 1" xmlns="http://www.w3.org/2000/svg" viewBox="0 0 50 60"><defs><style>.cls-1{isolation:isolate;}.cls-2{fill:#e24325;}</style></defs><title>Artboard 1 copy</title><g id="pptx-2" class="cls-1"><g class="cls-1"><path class="cls-2" d="M15.62,41.08l.11,1.17a4.2,4.2,0,0,1,1.42-1,4.07,4.07,0,0,1,1.63-.36,2.09,2.09,0,0,1,1.92,1,5.57,5.57,0,0,1,.6,2.91,4.92,4.92,0,0,1-.66,2.93,2.49,2.49,0,0,1-2.11.86,5.24,5.24,0,0,1-2.71-.75q0,.51,0,1.47V51.4H14.57V41.08Zm.23,2.05V47a9.17,9.17,0,0,0,2.35.45,1.59,1.59,0,0,0,1.39-.55A4,4,0,0,0,20,44.77a4.46,4.46,0,0,0-.37-2.14A1.35,1.35,0,0,0,18.35,42a2.68,2.68,0,0,0-1.14.26A8,8,0,0,0,15.85,43.13Z"/><path class="cls-2" d="M24.37,41.08l.11,1.17a4.2,4.2,0,0,1,1.42-1,4.07,4.07,0,0,1,1.63-.36,2.09,2.09,0,0,1,1.92,1,5.57,5.57,0,0,1,.6,2.91,4.92,4.92,0,0,1-.66,2.93,2.49,2.49,0,0,1-2.11.86,5.24,5.24,0,0,1-2.71-.75q0,.51,0,1.47V51.4H23.31V41.08Zm.23,2.05V47a9.17,9.17,0,0,0,2.35.45,1.59,1.59,0,0,0,1.39-.55,4,4,0,0,0,.39-2.13,4.46,4.46,0,0,0-.37-2.14A1.35,1.35,0,0,0,27.1,42a2.68,2.68,0,0,0-1.14.26A8,8,0,0,0,24.59,43.13Z"/><path class="cls-2" d="M33.88,42.08v4.29a1,1,0,0,0,.23.75,1.07,1.07,0,0,0,.77.22H36l.15,1a6.15,6.15,0,0,1-1.66.2,1.84,1.84,0,0,1-1.4-.51,2.06,2.06,0,0,1-.48-1.47V42.08H31.27v-.93l1.33-.06V38.92h1.28v2.16h2.34v1Z"/></g></g><path class="cls-2" d="M33,0H0V60H50V17ZM48.59,17H33V1.41ZM49,59H1V1H32V18H49Z"/></svg>