<svg id="Layer_1" data-name="Layer 1" xmlns="http://www.w3.org/2000/svg" viewBox="0 0 50 60"><defs><style>.cls-1{isolation:isolate;}.cls-2{fill:#e24325;}</style></defs><title>Artboard 1</title><g id="pptx-2" class="cls-1"><g class="cls-1"><path class="cls-2" d="M11.64,41.08l.11,1.17a4.2,4.2,0,0,1,1.42-1,4.06,4.06,0,0,1,1.63-.36,2.1,2.1,0,0,1,1.92,1,5.58,5.58,0,0,1,.6,2.91,4.92,4.92,0,0,1-.66,2.93,2.5,2.5,0,0,1-2.11.86,5.24,5.24,0,0,1-2.71-.75q0,.51,0,1.47V51.4H10.58V41.08Zm.23,2.06V47a9.16,9.16,0,0,0,2.35.45,1.58,1.58,0,0,0,1.39-.55A4,4,0,0,0,16,44.77a4.46,4.46,0,0,0-.37-2.14A1.35,1.35,0,0,0,14.37,42a2.69,2.69,0,0,0-1.14.26A8,8,0,0,0,11.87,43.13Z"/><path class="cls-2" d="M20.39,41.08l.11,1.17a4.2,4.2,0,0,1,1.42-1,4.06,4.06,0,0,1,1.63-.36,2.1,2.1,0,0,1,1.92,1,5.58,5.58,0,0,1,.6,2.91,4.92,4.92,0,0,1-.66,2.93,2.5,2.5,0,0,1-2.11.86,5.24,5.24,0,0,1-2.71-.75q0,.51,0,1.47V51.4H19.33V41.08Zm.23,2.06V47a9.16,9.16,0,0,0,2.35.45,1.58,1.58,0,0,0,1.39-.55,4,4,0,0,0,.39-2.13,4.46,4.46,0,0,0-.37-2.14A1.35,1.35,0,0,0,23.12,42a2.69,2.69,0,0,0-1.14.26A8,8,0,0,0,20.61,43.13Z"/><path class="cls-2" d="M29.9,42.08v4.29a1,1,0,0,0,.23.75,1.07,1.07,0,0,0,.77.22H32l.15,1a6.19,6.19,0,0,1-1.66.19A1.84,1.84,0,0,1,29.1,48a2.06,2.06,0,0,1-.48-1.47V42.08H27.29v-.93l1.33-.06V38.92H29.9v2.16h2.34v1Z"/><path class="cls-2" d="M36.76,45.08h-.3l-2.08,3.3H33l2.46-3.77-2.28-3.54h1.39l1.9,3h.35l1.88-3h1.39l-2.28,3.54,2.46,3.77H38.86Z"/></g></g><path class="cls-2" d="M33,0H0V60H50V17ZM48.59,17H33V1.41ZM49,59H1V1H32V18H49Z"/></svg>