<svg id="Layer_1" data-name="Layer 1" xmlns="http://www.w3.org/2000/svg" viewBox="0 0 50 60"><defs><style>.cls-1{isolation:isolate;}.cls-2{fill:#2776ae;}</style></defs><title>Artboard 1 copy 18</title><g id="pptx-2"><g class="cls-1"><path class="cls-2" d="M14.71,41.08l.11,1.17a4.2,4.2,0,0,1,1.42-1,4.06,4.06,0,0,1,1.63-.36,2.1,2.1,0,0,1,1.92,1,5.58,5.58,0,0,1,.6,2.91,4.92,4.92,0,0,1-.66,2.93,2.5,2.5,0,0,1-2.11.86,5.24,5.24,0,0,1-2.71-.75q0,.51,0,1.47V51.4H13.65V41.08Zm.23,2.06V47a9.16,9.16,0,0,0,2.35.45,1.58,1.58,0,0,0,1.39-.55,4,4,0,0,0,.39-2.13,4.46,4.46,0,0,0-.37-2.14A1.35,1.35,0,0,0,17.44,42a2.69,2.69,0,0,0-1.14.26A8,8,0,0,0,14.93,43.13Z"/><path class="cls-2" d="M25.75,45.43l-2.11-.48a2.25,2.25,0,0,1-1.28-.67A2.12,2.12,0,0,1,22,42.91a1.8,1.8,0,0,1,.64-1.63,4.2,4.2,0,0,1,2.22-.38,24.4,24.4,0,0,1,3.09.23l-.11.93L25,42a4.33,4.33,0,0,0-1.46.13q-.35.15-.35.79a.9.9,0,0,0,.23.72,2.07,2.07,0,0,0,.84.33l2.14.48a2.55,2.55,0,0,1,1.3.67,2,2,0,0,1,.4,1.34,1.79,1.79,0,0,1-.71,1.69,5.16,5.16,0,0,1-2.43.41,18.7,18.7,0,0,1-2.88-.21l.09-.93q1.28.08,2.53.06a4.94,4.94,0,0,0,1.72-.19.81.81,0,0,0,.44-.83.78.78,0,0,0-.26-.68A2.73,2.73,0,0,0,25.75,45.43Z"/><path class="cls-2" d="M36.33,37.88v10.5h-1l-.12-1a4.39,4.39,0,0,1-2.91,1.23,2.16,2.16,0,0,1-2-1,5.47,5.47,0,0,1-.61-2.9,5,5,0,0,1,.66-2.95,2.5,2.5,0,0,1,2.11-.86,5.15,5.15,0,0,1,2.61.67q-.06-.66-.06-1.44V37.88Zm-1.28,8.56v-4A9,9,0,0,0,32.8,42a1.57,1.57,0,0,0-1.37.56A4,4,0,0,0,31,44.69a4.3,4.3,0,0,0,.38,2.17,1.44,1.44,0,0,0,1.3.59,2.43,2.43,0,0,0,1-.22A9.28,9.28,0,0,0,35.05,46.45Z"/></g></g><path class="cls-2" d="M33,0H0V60H50V17ZM48.59,17H33V1.41ZM49,59H1V1H32V18H49Z"/></svg>