<svg id="Layer_1" data-name="Layer 1" xmlns="http://www.w3.org/2000/svg" viewBox="0 0 50 60"><defs><style>.cls-1{isolation:isolate;}.cls-2{fill:#ffb526;}</style></defs><title>Artboard 1 copy 15</title><g id="pptx-2"><g class="cls-1"><path class="cls-2" d="M20.75,40.9l-.15,1.2h-.42a3.34,3.34,0,0,0-1.15.22,16.58,16.58,0,0,0-1.59.71v5.36H16.15v-7.3h1l.14,1.15a5.26,5.26,0,0,1,3.14-1.33Z"/><path class="cls-2" d="M22.24,42.17l-.12-.94a22.25,22.25,0,0,1,3.54-.33,2.87,2.87,0,0,1,1.9.53,2.28,2.28,0,0,1,.62,1.81v5.14h-1L27,47.18a5.24,5.24,0,0,1-1.32.93,3.71,3.71,0,0,1-1.71.4A2.32,2.32,0,0,1,22.38,48a1.91,1.91,0,0,1-.6-1.51v-.8a1.68,1.68,0,0,1,.54-1.33,2.2,2.2,0,0,1,1.5-.47h3.06v-.64a1.26,1.26,0,0,0-.32-1A1.79,1.79,0,0,0,25.39,42Q24.31,42,22.24,42.17Zm.86,3.69v.46a1.11,1.11,0,0,0,.27.83,1.22,1.22,0,0,0,.87.26,3.38,3.38,0,0,0,1.3-.27,4.37,4.37,0,0,0,1.33-.82V44.86H24.05a1,1,0,0,0-.73.27A1.09,1.09,0,0,0,23.1,45.86Z"/><path class="cls-2" d="M35.07,40.9l-.15,1.2H34.5a3.35,3.35,0,0,0-1.15.22,16.8,16.8,0,0,0-1.59.71v5.36H30.47v-7.3h1l.14,1.15a5.26,5.26,0,0,1,3.14-1.33Z"/></g></g><path class="cls-2" d="M33,0H0V60H50V17ZM48.59,17H33V1.41ZM49,59H1V1H32V18H49Z"/></svg>