<svg id="Layer_1" data-name="Layer 1" xmlns="http://www.w3.org/2000/svg" viewBox="0 0 50 60"><defs><style>.cls-1{isolation:isolate;}.cls-2{fill:#a8b0b7;}</style></defs><title>Artboard 1 copy 17</title><g id="pptx-2"><g class="cls-1"><path class="cls-2" d="M19.55,42.08v4.29a1,1,0,0,0,.23.75,1.07,1.07,0,0,0,.77.22h1.12l.15,1a6.15,6.15,0,0,1-1.66.2,1.84,1.84,0,0,1-1.4-.51,2.06,2.06,0,0,1-.48-1.47V42.08H16.94v-.93l1.33-.06V38.92h1.28v2.16h2.34v1Z"/><path class="cls-2" d="M25.29,42.08v4.29a1,1,0,0,0,.23.75,1.07,1.07,0,0,0,.77.22h1.12l.15,1a6.15,6.15,0,0,1-1.66.2A1.84,1.84,0,0,1,24.5,48,2.06,2.06,0,0,1,24,46.54V42.08H22.69v-.93L24,41.09V38.92h1.28v2.16h2.34v1Z"/><path class="cls-2" d="M33.88,38.68H32.37a1.48,1.48,0,0,0-1,.28,1.27,1.27,0,0,0-.29,1v1.17h2.35v1H31.05v6.3H29.77v-6.3H28.45v-.93l1.33-.06V39.77a2.29,2.29,0,0,1,.5-1.61,2.15,2.15,0,0,1,1.64-.54,16.6,16.6,0,0,1,2.07.1Z"/></g></g><path class="cls-2" d="M33,0H0V60H50V17ZM48.59,17H33V1.41ZM49,59H1V1H32V18H49Z"/></svg>