<svg id="Layer_1" data-name="Layer 1" xmlns="http://www.w3.org/2000/svg" viewBox="0 0 50 60"><defs><style>.cls-1{isolation:isolate;}.cls-2{fill:#708a9f;}</style></defs><title>Artboard 1 copy 11</title><g id="pptx-2"><g class="cls-1"><path class="cls-2" d="M18.29,42.08v4.29a1,1,0,0,0,.23.75,1.07,1.07,0,0,0,.77.22H20.4l.15,1a6.15,6.15,0,0,1-1.66.2,1.84,1.84,0,0,1-1.4-.51A2.06,2.06,0,0,1,17,46.54V42.08H15.68v-.93L17,41.09V38.92h1.28v2.16h2.34v1Z"/><path class="cls-2" d="M25.15,45.08h-.3l-2.08,3.3h-1.4l2.46-3.77-2.28-3.54h1.39l1.9,3h.35l1.88-3h1.39l-2.28,3.54,2.46,3.77H27.25Z"/><path class="cls-2" d="M32,42.08v4.29a1,1,0,0,0,.23.75,1.07,1.07,0,0,0,.77.22h1.12l.15,1a6.15,6.15,0,0,1-1.66.2A1.84,1.84,0,0,1,31.2,48a2.06,2.06,0,0,1-.48-1.47V42.08H29.39v-.93l1.33-.06V38.92H32v2.16h2.34v1Z"/></g></g><path class="cls-2" d="M33,0H0V60H50V17ZM48.59,17H33V1.41ZM49,59H1V1H32V18H49Z"/></svg>