<svg id="Layer_1" data-name="Layer 1" xmlns="http://www.w3.org/2000/svg" viewBox="0 0 50 60"><defs><style>.cls-1{isolation:isolate;}.cls-2{fill:#02955f;}</style></defs><title>Artboard 1 copy 5</title><g id="pptx-2"><g class="cls-1"><path class="cls-2" d="M19.08,45.08h-.3l-2.08,3.3H15.3l2.46-3.77-2.28-3.54h1.39l1.9,3h.35l1.88-3h1.39l-2.28,3.54,2.46,3.77H21.18Z"/><path class="cls-2" d="M25.38,37.88v8.49a.92.92,0,0,0,.24.73,1,1,0,0,0,.75.25h.71l.15,1a3.33,3.33,0,0,1-1.34.2A1.76,1.76,0,0,1,24.59,48a1.86,1.86,0,0,1-.48-1.37V37.88Z"/><path class="cls-2" d="M31.91,45.43l-2.11-.48a2.25,2.25,0,0,1-1.28-.67,2.13,2.13,0,0,1-.38-1.37,1.8,1.8,0,0,1,.64-1.63A4.21,4.21,0,0,1,31,40.9a24.32,24.32,0,0,1,3.09.22l-.11.93L31.21,42a4.32,4.32,0,0,0-1.46.13c-.23.1-.35.37-.35.79a.9.9,0,0,0,.23.72,2.08,2.08,0,0,0,.84.33l2.14.48a2.56,2.56,0,0,1,1.3.67,2,2,0,0,1,.4,1.34,1.79,1.79,0,0,1-.71,1.69,5.15,5.15,0,0,1-2.43.41,18.7,18.7,0,0,1-2.88-.21l.09-.93q1.28.07,2.53.06a5,5,0,0,0,1.72-.19.81.81,0,0,0,.44-.83.78.78,0,0,0-.26-.68A2.7,2.7,0,0,0,31.91,45.43Z"/></g></g><path class="cls-2" d="M33,0H0V60H50V17ZM48.59,17H33V1.41ZM49,59H1V1H32V18H49Z"/></svg>