<svg id="Layer_1" data-name="Layer 1" xmlns="http://www.w3.org/2000/svg" viewBox="0 0 50 60"><defs><style>.cls-1{isolation:isolate;}.cls-2{fill:#02955f;}</style></defs><title>Artboard 1 copy 4</title><g id="pptx-2"><g class="cls-1"><path class="cls-2" d="M15.1,45.08h-.3l-2.08,3.3h-1.4l2.46-3.77L11.5,41.08h1.39l1.9,3h.35l1.88-3H18.4l-2.28,3.54,2.46,3.77H17.2Z"/><path class="cls-2" d="M21.4,37.88v8.49a.92.92,0,0,0,.24.73,1,1,0,0,0,.75.25h.71l.15,1a3.34,3.34,0,0,1-1.34.19A1.76,1.76,0,0,1,20.6,48a1.87,1.87,0,0,1-.48-1.37V37.88Z"/><path class="cls-2" d="M27.93,45.43l-2.11-.48a2.25,2.25,0,0,1-1.28-.67,2.13,2.13,0,0,1-.38-1.37,1.8,1.8,0,0,1,.64-1.63A4.2,4.2,0,0,1,27,40.9a24.4,24.4,0,0,1,3.09.23l-.11.93L27.22,42a4.33,4.33,0,0,0-1.46.13q-.35.15-.35.79a.91.91,0,0,0,.23.72,2.09,2.09,0,0,0,.84.33l2.14.48a2.55,2.55,0,0,1,1.3.67,2,2,0,0,1,.4,1.34,1.79,1.79,0,0,1-.71,1.69,5.16,5.16,0,0,1-2.43.41,18.69,18.69,0,0,1-2.88-.21l.09-.93q1.28.08,2.53.06a4.94,4.94,0,0,0,1.72-.19.81.81,0,0,0,.44-.83.78.78,0,0,0-.26-.68A2.75,2.75,0,0,0,27.93,45.43Z"/><path class="cls-2" d="M35.2,45.08h-.3l-2.08,3.3h-1.4l2.46-3.77L31.6,41.08H33l1.9,3h.35l1.88-3H38.5l-2.28,3.54,2.46,3.77H37.3Z"/></g></g><path class="cls-2" d="M33,0H0V60H50V17ZM48.59,17H33V1.41ZM49,59H1V1H32V18H49Z"/></svg>