<svg id="SvgjsSvg1014" xmlns="http://www.w3.org/2000/svg" version="1.1" xmlns:xlink="http://www.w3.org/1999/xlink" xmlns:svgjs="http://svgjs.com/svgjs" width="12" height="20"><defs id="SvgjsDefs1015"><clipPath id="SvgjsClipPath1018"><path id="SvgjsPath1017" d="M87.5 230C87.5 230 81.9998 240.208 81.9998 244.477C81.9998 247.528 84.4623 250 87.5 250C90.5375 250 92.9999 247.528 92.9999 244.477C92.9999 240.208 87.5 230 87.5 230Z " fill="#ffffff"></path></clipPath></defs><path id="SvgjsPath1016" d="M87.5 230C87.5 230 81.9998 240.208 81.9998 244.477C81.9998 247.528 84.4623 250 87.5 250C90.5375 250 92.9999 247.528 92.9999 244.477C92.9999 240.208 87.5 230 87.5 230Z " fill-opacity="0" fill="#ffffff" stroke-dasharray="0" stroke-linejoin="miter" stroke-linecap="butt" stroke-opacity="1" stroke="#ffffff" stroke-miterlimit="50" stroke-width="2" clip-path="url(&quot;#SvgjsClipPath1018&quot;)" transform="matrix(1,0,0,1,-81,-230)"></path></svg>