<svg id="SvgjsSvg1019" xmlns="http://www.w3.org/2000/svg" version="1.1" xmlns:xlink="http://www.w3.org/1999/xlink" xmlns:svgjs="http://svgjs.com/svgjs" width="18" height="16"><defs id="SvgjsDefs1020"></defs><path id="SvgjsPath1021" d="M85.6996 291.583C85.8002 291.71900000000005 85.89930000000001 291.855 86.0218 291.978C86.1448 292.101 86.2811 292.2 86.4167 292.301L80.71700000000001 298L79.99980000000001 297.283L83.02080000000001 294.262ZM90.9653 287.035C90.8515 286.92100000000005 90.72409999999999 286.831 90.59909999999999 286.73600000000005L93.33309999999999 284.00200000000007L94.00039999999998 284.67100000000005L91.26699999999998 287.40400000000005C91.17129999999999 287.2780000000001 91.08009999999999 287.15000000000003 90.96529999999998 287.035ZM86.0218 287.035C85.9075 287.149 85.8173 287.27700000000004 85.722 287.40200000000004L82.9901 284.67100000000005L83.6579 284.00200000000007L86.3895 286.7340000000001C86.2645 286.8300000000001 86.1365 286.9200000000001 86.0218 287.0350000000001ZM91.9417 289.998C91.989 289.666 91.989 289.331 91.94069999999999 288.99899999999997L96.00019999999999 288.99899999999997L96.00019999999999 289.998ZM88.0024 286.058L88.0024 282L89.0008 282L89.0008 286.06C88.66929999999999 286.011 88.3339 286.011 88.0024 286.058ZM85.0454 289.998L81.0027 289.998L81.0027 288.99899999999997L85.04690000000001 288.99899999999997C84.99810000000001 289.33099999999996 84.99810000000001 289.66599999999994 85.04540000000001 289.998ZM89.0008 292.953L89.0008 296.99699999999996L88.0024 296.99699999999996L88.0024 292.955C88.3339 293.002 88.66929999999999 293.002 89.0008 292.953ZM90.6015 292.276L93.3331 295.00800000000004L94.0004 294.34000000000003L91.2684 291.607C91.1727 291.73400000000004 91.0809 291.863 90.9653 291.978C90.852 292.092 90.7251 292.181 90.6015 292.276Z " fill="#ffffff" transform="matrix(1,0,0,1,-79,-282)"></path></svg>