<svg id="SvgjsSvg1011" xmlns="http://www.w3.org/2000/svg" version="1.1" xmlns:xlink="http://www.w3.org/1999/xlink" xmlns:svgjs="http://svgjs.com/svgjs" width="15" height="15"><defs id="SvgjsDefs1012"></defs><path id="SvgjsPath1013" d="M91.9375 197C90.1416 197 88.5 198 88.5 198C88.5 198 86.8584 197 85.0625 197C82.8936 197 81 198 81 198L81 184.001C81 184.001 82.8252 183 84.9688 183C86.8008 183 88.5 184.001 88.5 184.001C88.5 184.001 90.1992 183 92.0313 183C94.1743 183 96 184.001 96 184.001L96 198C96 198 94.106 197 91.9375 197ZM88 184.751C87.3584 184.455 86.186 184.001 85 184.001C83.25 184.001 82 185 82 185L82 196.5C82 196.5 83.2188 196 84.9531 196C86.15530000000001 196 87.35010000000001 196.229 88 196.377ZM95 185C95 185 93.75 184.001 92 184.001C90.8135 184.001 89.6411 184.455 89 184.751L89 196.377C89.6494 196.229 90.8447 196 92.0469 196C93.78129999999999 196 95 196.5 95 196.5ZM90.5 193C90.5 193 91.4385 192.499 92.4063 192.499C93.4365 192.499 94 193 94 193L94 194C94 194 93.5 193.5 92.5 193.5C91.5 193.5 90.5 194 90.5 194ZM90.5 188.001L90.5 187C90.5 187 91.4385 186.5 92.4063 186.5C93.4365 186.5 94 187 94 187L94 188.001C94 188.001 93.5 187.5 92.5 187.5C91.5 187.5 90.5 188.001 90.5 188.001ZM83 194L83 193C83 193 83.4385 192.499 84.4063 192.499C85.4365 192.499 86.5 193 86.5 193L86.5 194C86.5 194 85.5 193.5 84.5 193.5C83.5 193.5 83 194 83 194ZM90.5 191L90.5 190C90.5 190 91.4385 189.5 92.4063 189.5C93.4365 189.5 94 190 94 190L94 191C94 191 93.5 190.5 92.5 190.5C91.5 190.5 90.5 191 90.5 191ZM83 191L83 190C83 190 83.4385 189.5 84.4063 189.5C85.4365 189.5 86.5 190 86.5 190L86.5 191C86.5 191 85.5 190.5 84.5 190.5C83.5 190.5 83 191 83 191ZM84.5 187.5C85.5 187.5 86.5 188.001 86.5 188.001L86.5 187C86.5 187 85.4365 186.5 84.4063 186.5C83.4385 186.5 83 187 83 187L83 188.001C83 188.001 83.5 187.5 84.5 187.5Z " fill="#ffffff" transform="matrix(1,0,0,1,-81,-183)"></path></svg>