<svg id="SvgjsSvg1008" xmlns="http://www.w3.org/2000/svg" version="1.1" xmlns:xlink="http://www.w3.org/1999/xlink" xmlns:svgjs="http://svgjs.com/svgjs" width="15" height="15"><defs id="SvgjsDefs1009"></defs><path id="SvgjsPath1010" d="M88.5 148C84.3574 148 81 144.642 81 140.5C81 136.358 84.3574 133 88.5 133C92.6426 133 96 136.358 96 140.5C96 144.642 92.6426 148 88.5 148ZM88.5 133.999C84.9102 133.999 82 136.91 82 140.5C82 144.09 84.9102 147.001 88.5 147.001C92.0897 147.001 95 144.09 95 140.5C95 136.91 92.0897 133.999 88.5 133.999ZM91.6816 142.975L92.3887 143.682C92.584 143.878 92.584 144.195 92.3887 144.39C92.1934 144.58499999999998 91.877 144.58499999999998 91.6816 144.39L90.97460000000001 143.682C90.7793 143.487 90.7793 143.171 90.97460000000001 142.975C91.16890000000001 142.78 91.48630000000001 142.78 91.6816 142.975ZM85.3174 138.026L84.61040000000001 137.318C84.415 137.122 84.415 136.806 84.61040000000001 136.61200000000002C84.80570000000002 136.41600000000003 85.12210000000002 136.41600000000003 85.3174 136.61200000000002L86.0244 137.318C86.2197 137.513 86.2197 137.829 86.0244 138.026C85.8291 138.22 85.5127 138.22 85.3174 138.026ZM91.6816 138.025C91.4854 138.22 91.16890000000001 138.22 90.97460000000001 138.026C90.7793 137.829 90.7793 137.513 90.97460000000001 137.318L91.6816 136.61200000000002C91.87700000000001 136.41600000000003 92.1934 136.41600000000003 92.3887 136.61200000000002C92.584 136.806 92.584 137.122 92.3887 137.318ZM93.5 141L92.5 141C92.2236 141 92 140.776 92 140.5C92 140.224 92.2236 139.999 92.5 139.999L93.5 139.999C93.7754 139.999 94 140.224 94 140.5C94 140.776 93.7754 141 93.5 141ZM85 140.5C85 140.776 84.7754 141 84.5 141L83.5 141C83.2236 141 83 140.776 83 140.5C83 140.224 83.2236 139.999 83.5 139.999L84.5 139.999C84.7754 139.999 85 140.224 85 140.5ZM88.5 136.999C88.2236 136.999 88 136.777 88 136.499L88 135.5C88 135.224 88.2236 134.999 88.5 134.999C88.7754 134.999 89 135.224 89 135.5L89 136.499C89 136.777 88.7754 136.999 88.5 136.999ZM88.5 146C88.2236 146 88 145.776 88 145.501L88 144.5C88 144.224 88.2236 144.001 88.5 144.001C88.7754 144.001 89 144.22400000000002 89 144.5L89 145.501C89 145.776 88.7754 146 88.5 146ZM84.6104 143.682C84.41499999999999 143.878 84.41499999999999 144.194 84.6104 144.38899999999998C84.8057 144.58499999999998 85.1221 144.58499999999998 85.31739999999999 144.38899999999998L86.02439999999999 143.682C86.21969999999999 143.487 86.21969999999999 143.171 86.02439999999999 142.975C85.82909999999998 142.78 85.51269999999998 142.78 85.31739999999999 142.975Z " fill="#ffffff" transform="matrix(1,0,0,1,-81,-133)"></path></svg>