<svg id="SvgjsSvg1000" xmlns="http://www.w3.org/2000/svg" version="1.1" xmlns:xlink="http://www.w3.org/1999/xlink" xmlns:svgjs="http://svgjs.com/svgjs" width="43" height="16"><defs id="SvgjsDefs1001"></defs><path id="SvgjsPath1007" d="M1163 189L1163 187L1179 187L1179 189ZM1163 196L1163 194L1179 194L1179 196ZM1163 203L1163 201L1179 201L1179 203Z " fill="#808ca0" transform="matrix(1,0,0,1,-1136,-187)"></path><path id="SvgjsPath1008" d="M1136 191L1136 187L1140 187L1140 191ZM1142 191L1142 187L1146 187L1146 191ZM1148 191L1148 187L1152 187L1152 191ZM1136 197L1136 193L1140 193L1140 197ZM1142 197L1142 193L1146 193L1146 197ZM1148 197L1148 193L1152 193L1152 197ZM1136 203L1136 199L1140 199L1140 203ZM1142 203L1142 199L1146 199L1146 203ZM1148 203L1148 199L1152 199L1152 203Z " fill="#808ca0" transform="matrix(1,0,0,1,-1136,-187)"></path></svg>